<svg width="297" height="224" viewBox="0 0 297 224" fill="none" xmlns="http://www.w3.org/2000/svg">
<g clip-path="url(#clip0_5113_87437)">
<path d="M184.183 15.3724V171.586L183.639 178.09C182.686 189.381 177.893 200.007 170.057 208.206C168.946 209.366 167.784 210.464 166.57 211.501C165.076 212.787 163.505 213.981 161.865 215.076C160.927 215.705 159.966 216.299 158.989 216.861C153.306 220.137 147.029 222.255 140.521 223.095H93.8843C90.173 223.098 86.5864 221.758 83.7894 219.323C82.4048 218.12 81.2442 216.682 80.3614 215.076C79.1279 212.822 78.4829 210.294 78.4859 207.726V15.3724C78.491 11.297 80.1155 7.38996 83.0028 4.5082C85.8902 1.62643 89.8049 0.00518005 93.8882 0H168.784C168.962 0 169.135 0.00393425 169.312 0.00786682C169.427 0.0117994 169.541 0.0157332 169.655 0.0275309C169.809 0.0314634 169.962 0.0432618 170.112 0.0589921C170.305 0.0707898 170.494 0.0904284 170.684 0.114024C170.857 0.137619 171.03 0.161216 171.204 0.188744C171.239 0.192676 171.271 0.200545 171.306 0.204477C171.527 0.23987 171.747 0.279195 171.964 0.326386C172.181 0.369644 172.401 0.420763 172.614 0.475819C172.768 0.515145 172.926 0.558406 173.079 0.601664C173.083 0.601664 173.091 0.605595 173.095 0.605595C173.548 0.739302 173.997 0.892675 174.439 1.06964C174.576 1.12076 174.714 1.17975 174.848 1.23874L174.907 1.26233C175.018 1.30952 175.124 1.35672 175.231 1.40784C175.55 1.55335 175.865 1.71458 176.176 1.88368C176.688 2.16542 177.184 2.47527 177.662 2.81179C177.815 2.91797 177.965 3.03201 178.111 3.14605C178.233 3.2365 178.355 3.33088 178.473 3.43313C178.483 3.43834 178.493 3.44497 178.501 3.45279C178.517 3.46459 178.533 3.48032 178.548 3.49212C178.655 3.57471 178.757 3.66122 178.856 3.74774C179.049 3.9129 179.238 4.08594 179.423 4.2629C179.474 4.31009 179.525 4.35729 179.577 4.40841C179.628 4.4556 179.675 4.50672 179.726 4.55784C179.778 4.60504 179.825 4.65616 179.872 4.70335C179.9 4.72757 179.927 4.75386 179.951 4.782C180.093 4.93144 180.231 5.08481 180.365 5.23818C180.534 5.43088 180.7 5.62751 180.853 5.82807C180.987 5.99324 181.113 6.1584 181.236 6.3275C181.35 6.48085 181.456 6.63424 181.563 6.79155C181.591 6.83068 181.617 6.87138 181.641 6.91345C181.752 7.07469 181.854 7.23986 181.957 7.40503C182.213 7.82188 182.445 8.25446 182.658 8.69098C182.737 8.85614 182.812 9.01738 182.883 9.18255C182.973 9.38311 183.056 9.58367 183.135 9.78423C183.166 9.85895 183.194 9.9376 183.221 10.0123C183.265 10.1264 183.304 10.2404 183.344 10.3545C183.387 10.4803 183.43 10.6101 183.47 10.7359L183.564 11.0427C183.619 11.2275 183.667 11.4084 183.714 11.5932C183.741 11.7033 183.769 11.8134 183.793 11.9275C183.978 12.7306 184.098 13.5473 184.151 14.3696C184.155 14.4719 184.163 14.5702 184.167 14.6724C184.179 14.9044 184.183 15.1365 184.183 15.3724Z" fill="#3F3D56"/>
<path d="M184.183 15.3724V80.189L174.403 90.7912C173.962 90.3271 173.527 89.8565 173.099 89.3794C172.488 88.7109 171.892 88.0318 171.31 87.3423C171.157 87.1654 171.011 86.9923 170.861 86.8154C170.471 86.3592 170.093 85.8951 169.714 85.4272C166.292 81.2005 163.24 76.6876 160.593 71.9385C160.262 71.3446 159.939 70.7508 159.62 70.1491C156.745 64.7156 154.408 59.0153 152.641 53.129C152.44 52.4644 152.247 51.7919 152.066 51.1194C150.606 45.8555 149.606 40.4753 149.075 35.0392C149.001 34.2723 148.934 33.5094 148.878 32.7426C148.878 32.7229 148.875 32.6993 148.875 32.6796C148.811 31.8459 148.768 31.0122 148.729 30.1707C148.251 19.9951 149.411 9.80895 152.165 0H168.785C168.962 0 169.135 0.00393425 169.313 0.00786681C169.427 0.0117994 169.541 0.0157331 169.655 0.0275309C169.809 0.0314634 169.963 0.0432618 170.112 0.0589921C170.305 0.0707898 170.495 0.0904284 170.684 0.114024C170.857 0.137619 171.03 0.161216 171.204 0.188744C171.239 0.192676 171.271 0.200545 171.306 0.204477H171.31C171.531 0.23987 171.752 0.279195 171.968 0.326386C172.185 0.369644 172.406 0.420763 172.618 0.475819C172.772 0.515145 172.93 0.558406 173.083 0.601664C173.087 0.601664 173.095 0.605595 173.099 0.605595C173.552 0.739302 173.997 0.892675 174.439 1.06964C174.577 1.12076 174.715 1.17975 174.849 1.23874L174.908 1.26233C175.018 1.30952 175.124 1.35672 175.231 1.40784C175.55 1.55335 175.865 1.71458 176.176 1.88368C176.688 2.16542 177.184 2.47527 177.662 2.81179C177.816 2.91797 177.965 3.03201 178.111 3.14605C178.233 3.2365 178.355 3.33088 178.474 3.43313C178.484 3.43834 178.493 3.44497 178.501 3.45279H178.505C178.576 3.51178 178.647 3.57077 178.714 3.62976C178.761 3.66908 178.812 3.70841 178.856 3.74774C178.923 3.80279 178.986 3.86178 179.053 3.91684C179.084 3.94437 179.116 3.97189 179.143 3.99942C179.238 4.08594 179.329 4.17245 179.423 4.2629C179.474 4.31009 179.526 4.35729 179.577 4.40841C179.628 4.4556 179.675 4.50672 179.727 4.55784C179.778 4.60503 179.825 4.65616 179.872 4.70335L179.876 4.70728C179.905 4.7281 179.93 4.75331 179.951 4.782C180.093 4.93144 180.231 5.08481 180.365 5.23818C180.534 5.43088 180.7 5.62751 180.853 5.82807C180.987 5.99324 181.114 6.1584 181.236 6.3275C181.35 6.48085 181.456 6.63424 181.563 6.79155C181.591 6.83067 181.618 6.87137 181.642 6.91345C181.752 7.07469 181.854 7.23986 181.957 7.40503C182.213 7.82188 182.445 8.25446 182.658 8.69098C182.737 8.85614 182.812 9.01738 182.883 9.18255C182.973 9.38311 183.056 9.58367 183.135 9.78423C183.166 9.85895 183.194 9.9376 183.222 10.0123C183.265 10.1264 183.304 10.2404 183.344 10.3545C183.387 10.4803 183.43 10.6101 183.47 10.7359L183.564 11.0426C183.62 11.2275 183.667 11.4084 183.714 11.5932C183.742 11.7033 183.769 11.8134 183.793 11.9275C183.978 12.7306 184.098 13.5473 184.151 14.3696C184.155 14.4719 184.163 14.5702 184.167 14.6724C184.179 14.9044 184.183 15.1364 184.183 15.3724Z" fill="#5B7AC6"/>
<path opacity="0.2" d="M184.187 35.0393V33.246H173.099V5.23828H180.369C180.235 5.08491 180.097 4.93154 179.955 4.7821H179.951C179.93 4.75341 179.905 4.72819 179.876 4.70738V4.70345H179.872C179.825 4.65626 179.778 4.60513 179.727 4.55794C179.681 4.50527 179.632 4.45537 179.581 4.40851H179.577C179.526 4.35738 179.474 4.31019 179.423 4.263C179.329 4.17255 179.238 4.08603 179.143 3.99952C179.116 3.97199 179.084 3.94446 179.053 3.91693C178.986 3.86188 178.923 3.80289 178.856 3.74783C178.812 3.70851 178.761 3.66918 178.714 3.62985C178.647 3.57086 178.576 3.51188 178.505 3.45289H173.099V0.605713C173.095 0.605713 173.087 0.601777 173.083 0.601777C172.93 0.558519 172.772 0.515264 172.618 0.475938C172.406 0.420882 172.185 0.369757 171.968 0.326498C171.752 0.279308 171.531 0.239983 171.31 0.20459V5.23828C171.31 11.6916 169.077 17.9467 164.989 22.9467C160.901 27.9466 155.209 31.3846 148.875 32.6797C148.875 32.6994 148.878 32.723 148.878 32.7426C148.934 33.5095 149.001 34.2724 149.075 35.0393H171.31V70.1492H159.62C159.939 70.7509 160.262 71.3447 160.593 71.9386H171.31V87.3424C171.893 88.0306 172.49 88.7096 173.099 89.3795V71.9386H184.187V68.3285H184.183C184.148 68.3403 184.116 68.3521 184.081 68.3639C178.678 70.1768 173.099 66.0869 173.099 60.3965V35.0393H184.187Z" fill="black"/>
<path d="M50.9326 177.494L31.3331 170.659C29.1753 159.992 29.6592 148.961 32.7426 138.522C40.1779 156.388 63.3683 161.383 76.2445 175.843C80.2258 180.384 83.1323 185.761 84.7486 191.575C86.3648 197.389 86.6494 203.492 85.5813 209.431L89.3341 223.642C79.6381 222.532 70.2984 219.337 61.9586 214.278C53.6187 209.219 46.4769 202.415 41.0252 194.336C38.0119 189.773 35.5862 184.85 33.8054 179.682C42.2658 179.084 50.9326 177.494 50.9326 177.494Z" fill="#F2F2F2"/>
<path d="M77.4173 69.9873C76.9578 69.9868 76.5173 69.8043 76.1923 69.48C75.8674 69.1557 75.6846 68.716 75.6841 68.2574V56.4942C75.6837 56.2668 75.7283 56.0416 75.8153 55.8314C75.9022 55.6212 76.0298 55.4302 76.1908 55.2693C76.3518 55.1084 76.543 54.9807 76.7534 54.8936C76.9639 54.8065 77.1895 54.7617 77.4173 54.7617C77.6452 54.7617 77.8708 54.8065 78.0812 54.8936C78.2917 54.9807 78.4829 55.1084 78.6439 55.2693C78.8049 55.4302 78.9325 55.6212 79.0194 55.8314C79.1064 56.0416 79.1509 56.2668 79.1506 56.4942V68.2574C79.1501 68.716 78.9673 69.1557 78.6424 69.48C78.3174 69.8043 77.8769 69.9868 77.4173 69.9873Z" fill="#3F3D56"/>
<path d="M138.189 60.5947H124.485C121.529 60.5947 119.132 62.9865 119.132 65.9368V65.9368C119.132 68.8872 121.529 71.2789 124.485 71.2789H138.189C141.145 71.2789 143.541 68.8872 143.541 65.9368C143.541 62.9865 141.145 60.5947 138.189 60.5947Z" fill="#5B7AC6"/>
<path d="M163.613 81.9631H99.0605C96.1044 81.9631 93.708 84.3549 93.708 87.3052V87.3052C93.708 90.2556 96.1044 92.6473 99.0605 92.6473H163.613C166.569 92.6473 168.966 90.2556 168.966 87.3052C168.966 84.3549 166.569 81.9631 163.613 81.9631Z" fill="white"/>
<path d="M163.613 103.331H99.0605C96.1044 103.331 93.708 105.723 93.708 108.673V108.673C93.708 111.624 96.1044 114.015 99.0605 114.015H163.613C166.569 114.015 168.966 111.624 168.966 108.673C168.966 105.723 166.569 103.331 163.613 103.331Z" fill="white"/>
<path d="M77.0707 47.1527C76.6111 47.1522 76.1706 46.9698 75.8456 46.6455C75.5207 46.3212 75.3379 45.8815 75.3374 45.4229V33.6597C75.3381 33.2013 75.521 32.762 75.846 32.4381C76.171 32.1143 76.6114 31.9324 77.0707 31.9324C77.5299 31.9324 77.9704 32.1143 78.2953 32.4381C78.6203 32.762 78.8032 33.2013 78.8039 33.6597V45.4229C78.8034 45.8815 78.6206 46.3212 78.2957 46.6455C77.9707 46.9698 77.5302 47.1522 77.0707 47.1527Z" fill="#3F3D56"/>
<path d="M119.629 5.71523C119.629 5.25661 119.812 4.81691 120.137 4.49261C120.462 4.16831 120.903 3.98589 121.362 3.98535H133.148C133.608 3.98535 134.049 4.16761 134.374 4.49203C134.699 4.81644 134.882 5.25644 134.882 5.71523C134.882 6.17403 134.699 6.61403 134.374 6.93845C134.049 7.26287 133.608 7.44512 133.148 7.44512H121.362C120.903 7.44458 120.462 7.26216 120.137 6.93786C119.812 6.61356 119.629 6.17386 119.629 5.71523Z" fill="white"/>
<path d="M77.4173 90.054C76.9578 90.0534 76.5173 89.871 76.1923 89.5467C75.8674 89.2224 75.6846 88.7827 75.6841 88.3241V76.5609C75.6837 76.3335 75.7283 76.1082 75.8153 75.8981C75.9022 75.6879 76.0298 75.4969 76.1908 75.336C76.3518 75.1751 76.543 75.0474 76.7534 74.9603C76.9639 74.8732 77.1895 74.8284 77.4173 74.8284C77.6452 74.8284 77.8708 74.8732 78.0812 74.9603C78.2917 75.0474 78.4829 75.1751 78.6439 75.336C78.8049 75.4969 78.9325 75.6879 79.0194 75.8981C79.1064 76.1082 79.1509 76.3335 79.1506 76.5609V88.3241C79.1501 88.7827 78.9673 89.2224 78.6424 89.5467C78.3174 89.871 77.8769 90.0534 77.4173 90.054Z" fill="#3F3D56"/>
<path d="M185.38 64.4922C184.92 64.4917 184.48 64.3092 184.155 63.9849C183.83 63.6606 183.647 63.221 183.646 62.7623V50.9991C183.646 50.7717 183.691 50.5465 183.778 50.3363C183.865 50.1261 183.992 49.9351 184.153 49.7742C184.314 49.6133 184.505 49.4856 184.716 49.3985C184.926 49.3114 185.152 49.2666 185.38 49.2666C185.608 49.2666 185.833 49.3114 186.044 49.3985C186.254 49.4856 186.445 49.6133 186.606 49.7742C186.767 49.9351 186.895 50.1261 186.982 50.3363C187.069 50.5465 187.113 50.7717 187.113 50.9991V62.7623C187.112 63.2209 186.93 63.6606 186.605 63.9849C186.28 64.3092 185.839 64.4917 185.38 64.4922Z" fill="#3F3D56"/>
<path d="M139.735 7.44511C140.692 7.44511 141.468 6.67062 141.468 5.71523C141.468 4.75985 140.692 3.98535 139.735 3.98535C138.777 3.98535 138.001 4.75985 138.001 5.71523C138.001 6.67062 138.777 7.44511 139.735 7.44511Z" fill="white"/>
<path d="M234.526 171.407V146.078C234.526 145.565 234.731 145.074 235.094 144.711C235.457 144.349 235.95 144.145 236.463 144.144H255.63C256.144 144.145 256.636 144.349 256.999 144.711C257.363 145.074 257.567 145.565 257.567 146.078V171.407C257.567 171.92 257.363 172.412 256.999 172.774C256.636 173.137 256.144 173.341 255.63 173.341H236.463C235.95 173.341 235.457 173.137 235.094 172.774C234.731 172.412 234.526 171.92 234.526 171.407Z" fill="#E6E6E6"/>
<path d="M235.996 163.757V147.473C235.997 146.993 236.188 146.532 236.528 146.193C236.868 145.853 237.33 145.662 237.811 145.662H254.283C254.764 145.662 255.225 145.853 255.565 146.193C255.905 146.532 256.097 146.993 256.097 147.473V170.013C256.097 170.493 255.905 170.953 255.565 171.293C255.225 171.632 254.764 171.823 254.283 171.824H244.079C241.936 171.821 239.881 170.97 238.366 169.458C236.851 167.946 235.999 165.896 235.996 163.757Z" fill="white"/>
<path d="M238.663 152.016C238.664 151.547 238.851 151.097 239.183 150.765C239.515 150.434 239.966 150.247 240.436 150.247H251.863C252.333 150.247 252.784 150.433 253.117 150.765C253.449 151.097 253.636 151.547 253.636 152.016C253.636 152.486 253.449 152.936 253.117 153.268C252.784 153.599 252.333 153.786 251.863 153.786H240.436C239.966 153.785 239.515 153.599 239.183 153.267C238.851 152.935 238.664 152.485 238.663 152.016Z" fill="#E6E6E6"/>
<path d="M238.663 157.522C238.664 157.053 238.851 156.603 239.183 156.271C239.515 155.939 239.966 155.753 240.436 155.752H251.863C252.333 155.752 252.784 155.939 253.117 156.271C253.449 156.602 253.636 157.053 253.636 157.522C253.636 157.991 253.449 158.441 253.117 158.773C252.784 159.105 252.333 159.292 251.863 159.292H240.436C239.966 159.291 239.515 159.104 239.183 158.773C238.851 158.441 238.664 157.991 238.663 157.522Z" fill="#E6E6E6"/>
<path d="M238.663 163.027C238.664 162.558 238.851 162.108 239.183 161.777C239.515 161.445 239.966 161.258 240.436 161.258H251.863C252.333 161.258 252.784 161.444 253.117 161.776C253.449 162.108 253.636 162.558 253.636 163.027C253.636 163.497 253.449 163.947 253.117 164.279C252.784 164.611 252.333 164.797 251.863 164.797H240.436C239.966 164.797 239.515 164.61 239.183 164.278C238.851 163.946 238.664 163.497 238.663 163.027Z" fill="#E6E6E6"/>
<path d="M235.412 216.06H231.713L229.954 201.823L235.412 201.823L235.412 216.06Z" fill="#FFB6B6"/>
<path d="M237.066 223.069H234.441L233.973 220.596L232.773 223.069H225.813C225.479 223.069 225.154 222.963 224.885 222.765C224.617 222.568 224.418 222.29 224.319 221.972C224.22 221.654 224.225 221.313 224.334 220.998C224.442 220.683 224.649 220.412 224.924 220.222L230.482 216.391V213.891L236.328 214.239L237.066 223.069Z" fill="#2F2E41"/>
<path d="M223.186 207.716L219.978 209.552L211.356 198.074L216.092 195.364L223.186 207.716Z" fill="#FFB6B6"/>
<path d="M228.114 212.975L225.837 214.278L224.199 212.365L224.39 215.106L218.352 218.561C218.062 218.727 217.727 218.796 217.396 218.758C217.064 218.72 216.754 218.577 216.509 218.351C216.265 218.124 216.099 217.826 216.036 217.499C215.974 217.172 216.018 216.833 216.162 216.533L219.075 210.45L217.829 208.281L223.074 205.681L228.114 212.975Z" fill="#2F2E41"/>
<path d="M208.528 115.851L206.385 129.486L226.744 129.754L224.065 116.653L208.528 115.851Z" fill="#FFB6B6"/>
<path d="M206.976 126.157L200.492 143.389L200.125 175.97L200.106 177.677L199.852 183.59L211.279 204.039L218.971 198.927L209.703 181.623V181.574C209.703 178.391 211.221 168.319 213.791 166.435L218.306 157.426L221.917 178.87L230.361 208.978L236.496 209.151L233.907 180.719L233.668 176.997L232.743 174.459L232.595 172.156L233.178 169.357L231.968 150.474C231.968 150.474 233.074 137.864 227.414 130.422L226.036 126.45L206.976 126.157Z" fill="#2F2E41"/>
<path d="M232.356 147.429C232.092 147.143 231.895 146.803 231.777 146.432C231.66 146.062 231.625 145.67 231.676 145.284C231.727 144.899 231.861 144.53 232.071 144.202C232.28 143.874 232.558 143.596 232.887 143.387L230.704 134.195L235.324 135.88L236.689 144.351C237.003 144.925 237.096 145.594 236.949 146.232C236.802 146.869 236.426 147.431 235.892 147.811C235.358 148.19 234.703 148.361 234.051 148.291C233.4 148.22 232.796 147.914 232.356 147.429Z" fill="#FFB8B8"/>
<path d="M221.246 108.908L223.1 113.667C223.1 113.667 222.305 118.426 223.63 119.483C224.954 120.54 224.424 120.54 224.424 121.334C224.47 121.902 224.635 122.455 224.909 122.956C225.182 123.457 225.559 123.895 226.013 124.242C227.073 125.035 231.841 141.161 231.841 141.161H236.609C236.455 139.932 236.455 138.689 236.609 137.46C236.873 135.609 235.814 130.851 235.284 130.058C234.754 129.264 235.284 128.207 235.284 126.621C235.284 125.035 234.225 124.242 234.225 121.598C234.225 118.954 231.046 98.3339 231.311 95.9546C231.576 93.5754 228.662 91.4604 228.662 91.4604H226.013L221.246 108.908Z" fill="#3F3D56"/>
<path d="M182.386 95.4247C182.435 95.8103 182.568 96.1805 182.776 96.5092C182.983 96.838 183.261 97.1173 183.588 97.3275C183.916 97.5376 184.285 97.6736 184.671 97.7257C185.057 97.7779 185.45 97.7449 185.822 97.6293L191.446 105.228L193.14 100.619L187.539 94.1098C187.303 93.4994 186.851 92.9966 186.268 92.6968C185.685 92.397 185.013 92.3209 184.377 92.483C183.742 92.645 183.189 93.034 182.822 93.5762C182.455 94.1184 182.3 94.7761 182.386 95.4247Z" fill="#FFB8B8"/>
<path d="M205.239 120.954C205.22 120.922 205.211 120.886 205.212 120.849C205.214 120.812 205.225 120.776 205.245 120.745C205.63 120.066 207.444 102.831 208.569 91.411L208.583 91.2668L208.728 91.271C208.758 91.2716 211.691 91.3277 214.277 88.4507C214.615 88.0743 214.656 87.2079 214.699 86.2902C214.752 85.1726 214.806 84.0167 215.404 83.42L215.43 83.3942L215.465 83.3824C217.982 82.5457 222.232 83.0869 223.496 83.3785L223.551 83.3912L223.585 83.436C224.107 84.124 224.078 85.2247 224.05 86.289C224.025 87.2467 224.002 88.151 224.427 88.4238C224.756 88.635 225.072 88.8369 225.375 89.0296C229.116 91.411 230.994 92.6066 232.37 96.4966C232.873 97.921 233.034 99.116 232.847 100.048C232.04 104.077 233.39 124.241 233.59 125.039C233.725 125.415 233.921 125.767 234.169 126.081C234.503 126.561 234.792 126.976 234.626 127.294C234.512 127.51 234.219 127.611 233.704 127.611C231.76 127.611 205.804 122.009 205.239 120.954Z" fill="#3F3D56"/>
<path d="M193.477 109.167L193.434 109.14L192.947 107.89L190.654 107.307L186.527 99.0692L189.809 96.1214L194.227 98.6928L195.835 100.839L197.828 101.623L202.502 105.064L206.718 93.4923C206.94 92.8826 207.29 92.3269 207.743 91.8622C208.197 91.3974 208.744 91.0342 209.349 90.7967C209.954 90.5591 210.603 90.4526 211.252 90.4842C211.902 90.5158 212.537 90.6848 213.116 90.98L217.673 93.3041L217.713 93.3329C217.785 93.4053 219.489 95.1507 219.199 98.3416C218.927 101.332 216.756 106.176 207.939 112.275L202.883 115.113L193.477 109.167Z" fill="#3F3D56"/>
<path d="M211.933 78.0905C212.871 79.8031 214.366 81.1457 216.171 81.8972C217.976 82.6486 219.983 82.7641 221.863 82.2247C223.743 81.6852 225.382 80.523 226.512 78.9294C227.641 77.3357 228.193 75.4057 228.076 73.4572C227.96 71.5087 227.182 69.6579 225.871 68.2096C224.56 66.7612 222.793 65.8017 220.863 65.4891C218.932 65.1765 216.953 65.5293 215.25 66.4896C213.547 67.4499 212.223 68.9602 211.495 70.772C211.456 70.8703 211.42 70.9687 211.385 71.0709C210.973 72.2131 210.809 73.4293 210.904 74.6394C210.998 75.8494 211.349 77.0257 211.933 78.0905Z" fill="#FFB6B6"/>
<path d="M210.695 71.0708C211.066 70.0365 210.904 70.5753 211.279 69.545C211.158 70.0526 211.195 70.5847 211.385 71.0708H221.634V65.1247C218.631 63.9371 215.696 62.9264 213.922 65.1247C212.342 65.1248 210.827 65.7513 209.71 66.8664C208.593 67.9815 207.965 69.4938 207.965 71.0708H210.695Z" fill="#2F2E41"/>
<path d="M214.328 87.5995C214.336 87.4894 214.348 87.3754 214.364 87.2653C214.501 86.4574 214.724 85.6665 215.029 84.9057C215.325 84.0759 215.624 83.2422 215.924 82.4125C215.538 83.9187 215.656 85.5094 216.259 86.9428C217.989 85.5978 216.897 82.5226 219.159 82.5226C224.596 82.5226 230.192 78.122 230.192 72.6912C230.192 67.2642 227.859 63.2058 222.421 63.2058C216.98 63.2058 212.567 65.6912 212.46 71.1181C219.159 72.6912 213.063 87.049 214.328 87.5995Z" fill="#2F2E41"/>
<path d="M229.512 71.8594C232.994 71.8594 235.817 69.0423 235.817 65.5673C235.817 62.0922 232.994 59.2751 229.512 59.2751C226.031 59.2751 223.208 62.0922 223.208 65.5673C223.208 69.0423 226.031 71.8594 229.512 71.8594Z" fill="#2F2E41"/>
<path d="M227.245 60.6495L228.001 59.6821C229.774 62.5096 233.384 63.5792 235.728 65.9584C239.574 69.8635 239.152 76.2106 237.769 81.5078C236.382 86.805 234.286 92.2909 235.657 97.5959C236.571 101.135 238.947 104.116 241.485 106.755C243.876 109.248 246.713 111.631 249.881 112.839C250.09 111.888 250.373 110.956 250.728 110.05C251.15 108.871 251.572 107.687 251.997 106.511C251.451 108.649 251.618 110.906 252.474 112.941C252.561 113.153 252.659 113.366 252.762 113.574C253.369 113.653 253.982 113.68 254.594 113.657C256.149 113.583 257.668 113.158 259.034 112.414C259.242 111.612 259.494 110.823 259.791 110.05C260.213 108.871 260.634 107.687 261.06 106.511C260.67 108.017 260.638 109.592 260.965 111.112C263.001 109.449 264.418 107.151 264.988 104.588C266.005 99.7471 263.775 94.4814 259.807 91.5201C256.907 89.3572 253.317 88.378 250.047 86.8207C246.776 85.2673 243.569 82.7662 242.864 79.223C241.812 73.9219 246.686 69.2461 247.36 63.886C248.006 58.7186 244.018 53.4057 238.868 52.5759C233.718 51.7501 228.257 55.5411 227.245 60.6495Z" fill="#2F2E41"/>
<path d="M166.572 211.5C165.078 212.786 163.507 213.98 161.868 215.075C160.93 215.704 159.969 216.298 158.991 216.86C153.309 220.136 147.032 222.254 140.523 223.093H93.8868C90.1755 223.097 86.5889 221.757 83.7919 219.322C82.4072 218.119 81.2467 216.681 80.3638 215.075C79.1303 212.821 78.4853 210.293 78.4883 207.725V122.923C80.2693 123.049 82.0371 123.226 83.7919 123.454C84.3908 123.529 84.9857 123.611 85.5807 123.702C97.7603 125.496 109.472 129.647 120.058 135.92C120.657 136.274 121.256 136.636 121.847 137.01C127.146 140.304 132.109 144.111 136.662 148.375C137.288 148.961 137.907 149.557 138.518 150.164C148.547 160.057 156.252 172.049 161.076 185.274C161.292 185.868 161.503 186.465 161.706 187.067C164.4 194.962 166.037 203.177 166.572 211.5Z" fill="#5B7AC6"/>
<path opacity="0.2" d="M121.847 215.075C121.847 211.397 122.573 207.754 123.983 204.356C125.394 200.958 127.461 197.87 130.067 195.269C132.674 192.668 135.768 190.605 139.173 189.198C142.578 187.791 146.227 187.067 149.913 187.067H161.706C161.501 186.466 161.291 185.868 161.076 185.274H121.847V150.164H138.518C137.907 149.558 137.288 148.962 136.662 148.375H121.847V137.01C121.256 136.636 120.657 136.274 120.058 135.92V148.375H85.5807V123.702C84.9857 123.611 84.3908 123.529 83.7918 123.454V148.375H78.4883V150.164H83.7918V185.274H78.4883V187.067H83.7918V215.075H80.3638C80.7052 215.695 81.0882 216.292 81.5104 216.86H83.7918V219.322C84.3547 219.812 84.9526 220.26 85.5807 220.663V216.86H120.058V223.094H121.847V216.86H158.991C159.968 216.298 160.93 215.704 161.868 215.075L121.847 215.075ZM120.058 215.075H85.5807V187.067H120.058V215.075ZM120.058 185.274H85.5807V184.578C85.5805 175.451 89.2128 166.699 95.6784 160.245C102.144 153.791 110.913 150.165 120.058 150.164V185.274Z" fill="black"/>
<path d="M113.954 167.746C113.955 169.228 113.462 170.669 112.553 171.841C111.644 173.013 110.371 173.851 108.934 174.222C107.496 174.594 105.976 174.478 104.611 173.893C103.247 173.309 102.115 172.288 101.395 170.993C100.675 169.697 100.406 168.198 100.631 166.734C100.857 165.269 101.563 163.92 102.64 162.899C103.717 161.879 105.103 161.244 106.58 161.095C108.057 160.946 109.543 161.291 110.802 162.076C109.492 163.605 108.406 165.311 107.575 167.145C109.052 165.671 110.94 164.677 112.993 164.294C113.624 165.335 113.957 166.529 113.954 167.746Z" fill="#2F2E41"/>
<path d="M136.8 205.901C135.749 204.853 135.078 203.487 134.89 202.017C134.702 200.547 135.009 199.056 135.762 197.779C136.515 196.501 137.672 195.51 139.051 194.96C140.43 194.411 141.953 194.334 143.381 194.742C144.808 195.15 146.06 196.02 146.938 197.214C147.817 198.409 148.273 199.862 148.234 201.343C148.196 202.825 147.666 204.252 146.727 205.4C145.788 206.548 144.493 207.352 143.046 207.686C142.889 205.68 142.449 203.707 141.737 201.824C141.737 203.908 141.106 205.944 139.926 207.664C138.742 207.373 137.66 206.763 136.8 205.901Z" fill="#2F2E41"/>
<path d="M176.516 20.9221H86.1574C86.0528 20.9198 85.9533 20.8767 85.8802 20.8021C85.8071 20.7275 85.7661 20.6272 85.7661 20.5228C85.7661 20.4184 85.8071 20.3182 85.8802 20.2436C85.9533 20.1689 86.0528 20.1259 86.1574 20.1235H176.516C176.621 20.1259 176.72 20.1689 176.794 20.2436C176.867 20.3182 176.908 20.4184 176.908 20.5228C176.908 20.6272 176.867 20.7275 176.794 20.8021C176.72 20.8767 176.621 20.9198 176.516 20.9221Z" fill="white"/>
<path d="M93.0057 18.0849C94.3006 18.0849 95.3504 17.0139 95.3504 15.6927C95.3504 14.3716 94.3006 13.3005 93.0057 13.3005C91.7109 13.3005 90.6611 14.3716 90.6611 15.6927C90.6611 17.0139 91.7109 18.0849 93.0057 18.0849Z" fill="white"/>
<path d="M101.105 18.0849C102.4 18.0849 103.45 17.0139 103.45 15.6927C103.45 14.3716 102.4 13.3005 101.105 13.3005C99.8105 13.3005 98.7607 14.3716 98.7607 15.6927C98.7607 17.0139 99.8105 18.0849 101.105 18.0849Z" fill="white"/>
<path d="M109.205 18.0849C110.5 18.0849 111.55 17.0139 111.55 15.6927C111.55 14.3716 110.5 13.3005 109.205 13.3005C107.91 13.3005 106.86 14.3716 106.86 15.6927C106.86 17.0139 107.91 18.0849 109.205 18.0849Z" fill="white"/>
<path d="M171.64 13.8936H165.887C165.772 13.8958 165.664 13.9426 165.584 14.0239C165.504 14.1052 165.459 14.2145 165.459 14.3283C165.459 14.4422 165.504 14.5515 165.584 14.6328C165.664 14.7141 165.772 14.7609 165.887 14.7631H171.64C171.754 14.7609 171.863 14.7141 171.942 14.6328C172.022 14.5515 172.067 14.4422 172.067 14.3283C172.067 14.2145 172.022 14.1052 171.942 14.0239C171.863 13.9426 171.754 13.8958 171.64 13.8936Z" fill="white"/>
<path d="M171.64 15.5256H165.887C165.772 15.5279 165.664 15.5747 165.584 15.656C165.504 15.7373 165.459 15.8466 165.459 15.9604C165.459 16.0743 165.504 16.1836 165.584 16.2649C165.664 16.3462 165.772 16.393 165.887 16.3952H171.64C171.754 16.393 171.863 16.3462 171.942 16.2649C172.022 16.1836 172.067 16.0743 172.067 15.9604C172.067 15.8466 172.022 15.7373 171.942 15.656C171.863 15.5747 171.754 15.5279 171.64 15.5256Z" fill="white"/>
<path d="M171.64 17.1555H165.887C165.772 17.1578 165.664 17.2046 165.584 17.2859C165.504 17.3672 165.459 17.4765 165.459 17.5903C165.459 17.7042 165.504 17.8134 165.584 17.8947C165.664 17.976 165.772 18.0228 165.887 18.0251H171.64C171.754 18.0228 171.863 17.976 171.942 17.8947C172.022 17.8134 172.067 17.7042 172.067 17.5903C172.067 17.4765 172.022 17.3672 171.942 17.2859C171.863 17.2046 171.754 17.1578 171.64 17.1555Z" fill="white"/>
<path d="M296.013 223.879L0.987333 224C0.86314 224 0.744159 223.95 0.656468 223.862C0.568777 223.775 0.519531 223.656 0.519531 223.532C0.519531 223.408 0.568777 223.289 0.656468 223.201C0.744159 223.113 0.86314 223.064 0.987333 223.063L296.013 222.943C296.137 222.943 296.256 222.992 296.344 223.08C296.431 223.168 296.481 223.287 296.481 223.411C296.481 223.535 296.431 223.654 296.344 223.742C296.256 223.829 296.137 223.879 296.013 223.879Z" fill="#CACACA"/>
</g>
<defs>
<clipPath id="clip0_5113_87437">
<rect width="295.964" height="224" fill="white" transform="translate(0.518066)"/>
</clipPath>
</defs>
</svg>
