<svg width="29" height="28" viewBox="0 0 29 28" fill="none" xmlns="http://www.w3.org/2000/svg">
<rect x="0.5" width="28" height="28" rx="14" fill="#E2EAFF"/>
<path d="M18.9433 13.3228C18.8639 13.2842 18.7825 13.2476 18.7 13.2121C18.5569 10.5681 17.1117 9.05498 14.6869 9.03514H14.6535C13.203 9.03514 11.9959 9.65438 11.2534 10.7811L12.588 11.7042C13.1425 10.8626 14.0134 10.683 14.6545 10.683H14.6765C15.4753 10.6882 16.0779 10.92 16.4674 11.3732C16.7514 11.7022 16.9415 12.1585 17.0354 12.7307C16.2763 12.6075 15.5056 12.5703 14.7381 12.62C12.4366 12.7485 10.9548 14.0977 11.054 15.9658C11.0752 16.4273 11.2071 16.8768 11.4384 17.2766C11.6698 17.6764 11.9938 18.0148 12.3833 18.2632C13.1205 18.7261 13.9856 18.9433 14.854 18.8835C16.0601 18.8166 17.0062 18.3613 17.6662 17.5155C18.1674 16.8764 18.4838 16.0483 18.6237 15.0093C19.1696 15.319 19.6027 15.7945 19.8601 16.3668C20.2601 17.2993 20.2841 18.8323 19.0331 20.0823C17.9377 21.1766 16.6198 21.6486 14.6295 21.6643C12.4209 21.6486 10.7511 20.9406 9.66512 19.5601C8.6522 18.258 8.12694 16.3908 8.10814 14.0016C8.12694 11.6123 8.6522 9.74523 9.67452 8.45244C10.7605 7.07195 12.4303 6.36394 14.6389 6.34828C16.8631 6.36394 18.5621 7.07926 19.6889 8.46289C20.2423 9.14269 20.659 9.99793 20.9336 10.9952L22.5 10.5775C22.2059 9.42481 21.6722 8.34704 20.9336 7.41446C19.4759 5.63819 17.3602 4.72656 14.6389 4.70776H14.6284C11.9134 4.72656 9.81967 5.64132 8.4162 7.42281C7.16623 9.01425 6.52193 11.2249 6.5 13.9953V14.0079C6.52193 16.7782 7.16623 18.9889 8.4162 20.5772C9.81967 22.3619 11.9103 23.2766 14.6284 23.2923H14.6389C17.0553 23.2756 18.7585 22.6428 20.1619 21.2414C21.9977 19.4066 21.9371 17.1082 21.3367 15.6964C20.9033 14.6877 20.0753 13.8658 18.9433 13.3228ZM14.7715 17.245C13.7607 17.3025 12.7112 16.8482 12.659 15.8771C12.6203 15.1565 13.1717 14.3525 14.8342 14.2564C15.0242 14.2459 15.2111 14.2407 15.3939 14.2407C15.9591 14.2374 16.5231 14.2945 17.0762 14.4109C16.884 16.8033 15.7615 17.1907 14.7715 17.245Z" fill="#2B4483"/>
</svg>
