<svg width="32" height="32" viewBox="0 0 32 32" fill="none" xmlns="http://www.w3.org/2000/svg">
<rect width="32" height="32" rx="16" fill="#95EED8"/>
<path d="M19.048 14.6187C18.7454 14.316 18.2547 14.316 17.952 14.6187L16.775 15.7956V9.33333C16.775 8.90531 16.428 8.55833 16 8.55833C15.572 8.55833 15.225 8.90531 15.225 9.33333V15.7956L14.048 14.6187C13.7454 14.316 13.2547 14.316 12.952 14.6187C12.6493 14.9213 12.6493 15.412 12.952 15.7147L15.452 18.2147C15.7547 18.5173 16.2454 18.5173 16.548 18.2147L19.048 15.7147C19.3507 15.412 19.3507 14.9213 19.048 14.6187ZM23.4417 16C23.4417 15.572 23.0947 15.225 22.6667 15.225C22.2387 15.225 21.8917 15.572 21.8917 16C21.8917 19.2539 19.2539 21.8917 16 21.8917C12.7461 21.8917 10.1083 19.2539 10.1083 16C10.1083 15.572 9.76136 15.225 9.33334 15.225C8.90532 15.225 8.55834 15.572 8.55834 16C8.55834 20.1099 11.8901 23.4417 16 23.4417C20.1099 23.4417 23.4417 20.1099 23.4417 16Z" fill="#27564B" stroke="#5BBAA3" stroke-width="0.3"/>
</svg>
