<svg width="16" height="16" viewBox="0 0 16 16" fill="none" xmlns="http://www.w3.org/2000/svg">
<path d="M13.5 4.25C13.5 5.76878 11.0376 7 8 7C4.96243 7 2.5 5.76878 2.5 4.25M13.5 4.25C13.5 2.73122 11.0376 1.5 8 1.5C4.96243 1.5 2.5 2.73122 2.5 4.25M13.5 4.25V11.75C13.5 13.2688 11.0376 14.5 8 14.5C4.96243 14.5 2.5 13.2688 2.5 11.75V4.25M13.5 4.25V6.75M2.5 4.25V6.75M13.5 6.75V9.25C13.5 10.7688 11.0376 12 8 12C4.96243 12 2.5 10.7688 2.5 9.25V6.75M13.5 6.75C13.5 8.26878 11.0376 9.5 8 9.5C4.96243 9.5 2.5 8.26878 2.5 6.75" stroke="#1B7BEC" stroke-width="1.5" stroke-linecap="round" stroke-linejoin="round"/>
</svg>
