<svg width="10" height="9" viewBox="0 0 10 9" fill="none" xmlns="http://www.w3.org/2000/svg">
<path d="M7.73268 0.678814C7.14178 0.361697 6.50996 0.13123 5.84941 0C5.76828 0.168232 5.67351 0.394508 5.60816 0.57451C4.90598 0.453385 4.21025 0.453385 3.52099 0.57451C3.45565 0.394508 3.35873 0.168232 3.27688 0C2.61561 0.13123 1.98307 0.362544 1.39216 0.680493C0.20031 2.74634 -0.122782 4.76088 0.0387643 6.74682C0.829265 7.42394 1.59535 7.83527 2.34852 8.10443C2.53448 7.81087 2.70033 7.4988 2.8432 7.16992C2.57109 7.05132 2.31046 6.90496 2.0642 6.73505C2.12953 6.67953 2.19344 6.62149 2.25518 6.56176C3.7572 7.36759 5.38918 7.36759 6.87325 6.56176C6.93572 6.62149 6.99961 6.67953 7.06423 6.73505C6.81724 6.90579 6.5559 7.05215 6.28379 7.17076C6.42667 7.4988 6.5918 7.81171 6.77848 8.10526C7.53237 7.8361 8.29917 7.42478 9.08967 6.74682C9.27922 4.44461 8.76586 2.44858 7.73268 0.678814ZM3.04783 5.52549C2.59694 5.52549 2.22717 5.04266 2.22717 4.4547C2.22717 3.86675 2.58905 3.38309 3.04783 3.38309C3.50663 3.38309 3.87639 3.8659 3.86849 4.4547C3.8692 5.04266 3.50663 5.52549 3.04783 5.52549ZM6.0806 5.52549C5.62971 5.52549 5.25994 5.04266 5.25994 4.4547C5.25994 3.86675 5.6218 3.38309 6.0806 3.38309C6.53939 3.38309 6.90915 3.8659 6.90126 4.4547C6.90126 5.04266 6.53939 5.52549 6.0806 5.52549Z" fill="#5865F2"/>
</svg>
