<svg width="32" height="32" viewBox="0 0 32 32" fill="none" xmlns="http://www.w3.org/2000/svg">
<rect width="32" height="32" rx="16" fill="#95EED8"/>
<g clip-path="url(#clip0_18185_100101)">
<path fill-rule="evenodd" clip-rule="evenodd" d="M19.0522 6.98601C20.241 7.38605 21 8.50242 21 9.92896C21 10.8533 20.4771 11.6821 19.9302 12.3162C19.3632 12.9734 18.6501 13.5585 18.0328 14.0086C18.0023 14.0308 17.9721 14.0529 17.9419 14.075C17.3603 14.5005 16.819 14.8967 16 14.8966C15.1811 14.8966 14.6397 14.5005 14.0581 14.075C14.0279 14.0529 13.9977 14.0307 13.9672 14.0086C13.3499 13.5585 12.6368 12.9734 12.0698 12.3161C11.5229 11.6821 11 10.8533 11 9.92897C11 8.50243 11.759 7.38606 12.9478 6.98601C13.9163 6.66007 15.0182 6.85896 16 7.52659C16.9818 6.85896 18.0837 6.66007 19.0522 6.98601ZM18.5206 8.56563C18.0652 8.41238 17.3321 8.49591 16.5639 9.20199C16.2451 9.49506 15.7549 9.49506 15.4361 9.20199C14.6679 8.49591 13.9348 8.41238 13.4794 8.56563C13.0535 8.70895 12.6667 9.12453 12.6667 9.92897C12.6667 10.2422 12.8629 10.684 13.3318 11.2275C13.7806 11.7477 14.3798 12.2469 14.949 12.6618C15.6638 13.1828 15.7755 13.23 16 13.23C16.2245 13.23 16.3362 13.1828 17.051 12.6618C17.6202 12.2469 18.2194 11.7477 18.6682 11.2275C19.1371 10.684 19.3333 10.2422 19.3333 9.92896C19.3333 9.12453 18.9465 8.70895 18.5206 8.56563Z" fill="#27564B"/>
<path fill-rule="evenodd" clip-rule="evenodd" d="M14.0303 17.0023C15.6128 16.6957 17.3355 16.7582 18.7427 17.5976C18.9482 17.7201 19.1425 17.8738 19.3129 18.0652C19.5729 18.3572 19.7389 18.703 19.8094 19.0628C19.8708 19.0186 19.9328 18.9728 19.9955 18.9254L21.5015 17.7878C22.3296 17.1622 23.5277 17.1621 24.3559 17.7875C25.1254 18.3685 25.447 19.4291 24.8828 20.3334C24.5277 20.9026 23.9815 21.7094 23.4162 22.233C22.8432 22.7637 22.0382 23.2022 21.4435 23.4893C20.7005 23.8478 19.9035 24.0437 19.1389 24.1674C17.5726 24.421 15.9436 24.3821 14.3954 24.0632C13.6305 23.9056 12.8354 23.8237 12.0499 23.8237H10.1667C9.70642 23.8237 9.33332 23.4506 9.33332 22.9903C9.33332 22.5301 9.70642 22.157 10.1667 22.157H12.0499C12.9493 22.157 13.857 22.2506 14.7317 22.4308C16.084 22.7094 17.5087 22.7429 18.8726 22.5222C19.5528 22.4121 20.1762 22.2503 20.719 21.9883C21.2849 21.7151 21.9017 21.364 22.2837 21.0102C22.672 20.6506 23.1189 20.0119 23.4687 19.4512C23.5015 19.3987 23.505 19.3553 23.4953 19.313C23.4843 19.2653 23.4477 19.1902 23.3516 19.1176C23.1178 18.941 22.7399 18.9411 22.5061 19.1177L21.0001 20.2553C20.3931 20.7139 19.619 21.2264 18.6484 21.3812C18.5549 21.3961 18.4578 21.4097 18.3571 21.4218C18.3042 21.4311 18.2491 21.4374 18.1921 21.4398C17.7124 21.4871 17.1584 21.4978 16.5481 21.4402C16.0899 21.3969 15.7535 20.9904 15.7968 20.5322C15.8401 20.074 16.2466 19.7376 16.7048 19.7809C17.2001 19.8277 17.6451 19.8187 18.024 19.7817C18.0282 19.7782 18.0327 19.7744 18.0376 19.7701C18.2139 19.6162 18.2343 19.3602 18.068 19.1734L18.6904 18.6193L18.068 19.1734C18.0225 19.1223 17.9643 19.0739 17.889 19.0289L18.3159 18.3132L17.889 19.0289C16.9651 18.4779 15.7089 18.3747 14.3473 18.6385C12.9963 18.9003 11.6514 19.5045 10.6487 20.2155C10.2733 20.4817 9.75314 20.3932 9.4869 20.0178C9.22067 19.6424 9.30917 19.1222 9.68459 18.856C10.8731 18.0131 12.4373 17.3109 14.0303 17.0023ZM18.139 19.8862L18.0579 19.7933L18.139 19.8862Z" fill="#27564B"/>
<path fill-rule="evenodd" clip-rule="evenodd" d="M6.83334 18.9167C6.83334 17.7661 7.76608 16.8333 8.91668 16.8333C10.0673 16.8333 11 17.7661 11 18.9167V23.0833C11 24.2339 10.0673 25.1667 8.91668 25.1667C7.76608 25.1667 6.83334 24.2339 6.83334 23.0833V18.9167ZM8.91668 18.5C8.68656 18.5 8.50001 18.6865 8.50001 18.9167V23.0833C8.50001 23.3135 8.68656 23.5 8.91668 23.5C9.1468 23.5 9.33334 23.3135 9.33334 23.0833V18.9167C9.33334 18.6865 9.1468 18.5 8.91668 18.5Z" fill="#27564B"/>
</g>
<defs>
<clipPath id="clip0_18185_100101">
<rect width="20" height="20" fill="white" transform="translate(6 6)"/>
</clipPath>
</defs>
</svg>
