<svg width="33" height="32" viewBox="0 0 33 32" fill="none" xmlns="http://www.w3.org/2000/svg">
<rect x="0.5" width="32" height="32" rx="16" fill="#DBFDF4"/>
<path fill-rule="evenodd" clip-rule="evenodd" d="M19.5522 6.98606C20.741 7.3861 21.5 8.50247 21.5 9.929C21.5 10.8533 20.9771 11.6822 20.4302 12.3162C19.8632 12.9734 19.1501 13.5586 18.5328 14.0086C18.5023 14.0308 18.4721 14.053 18.4419 14.075C17.8603 14.5006 17.319 14.8967 16.5 14.8967C15.6811 14.8967 15.1397 14.5006 14.5581 14.075C14.5279 14.0529 14.4977 14.0308 14.4672 14.0086C13.8499 13.5586 13.1368 12.9734 12.5698 12.3162C12.0229 11.6822 11.5 10.8533 11.5 9.92902C11.5 8.50248 12.259 7.3861 13.4478 6.98606C14.4163 6.66012 15.5182 6.85901 16.5 7.52664C17.4818 6.85901 18.5837 6.66012 19.5522 6.98606ZM19.0206 8.56568C18.5652 8.41242 17.8321 8.49595 17.0639 9.20203C16.7451 9.49511 16.2549 9.49511 15.9361 9.20203C15.1679 8.49595 14.4348 8.41242 13.9794 8.56568C13.5535 8.709 13.1667 9.12458 13.1667 9.92902C13.1667 10.2423 13.3629 10.6841 13.8318 11.2275C14.2806 11.7478 14.8798 12.2469 15.449 12.6618C16.1638 13.1829 16.2755 13.23 16.5 13.23C16.7245 13.23 16.8362 13.1829 17.551 12.6618C18.1202 12.2469 18.7194 11.7478 19.1682 11.2275C19.6371 10.6841 19.8333 10.2423 19.8333 9.929C19.8333 9.12458 19.4465 8.709 19.0206 8.56568Z" fill="#5BBAA3"/>
<path fill-rule="evenodd" clip-rule="evenodd" d="M14.5303 17.0023C16.1128 16.6957 17.8355 16.7582 19.2427 17.5976C19.4482 17.7201 19.6425 17.8738 19.8129 18.0652C20.0729 18.3572 20.2389 18.703 20.3094 19.0628C20.3708 19.0186 20.4328 18.9728 20.4955 18.9254L22.0015 17.7878C22.8296 17.1622 24.0277 17.1621 24.8559 17.7875C25.6254 18.3685 25.947 19.4291 25.3828 20.3334C25.0277 20.9026 24.4815 21.7094 23.9162 22.233C23.3432 22.7637 22.5382 23.2022 21.9435 23.4893C21.2005 23.8479 20.4035 24.0437 19.6389 24.1674C18.0726 24.421 16.4436 24.3821 14.8954 24.0632C14.1305 23.9056 13.3354 23.8237 12.5499 23.8237H10.6667C10.2064 23.8237 9.83332 23.4506 9.83332 22.9903C9.83332 22.5301 10.2064 22.157 10.6667 22.157H12.5499C13.4493 22.157 14.357 22.2506 15.2317 22.4308C16.584 22.7094 18.0087 22.743 19.3726 22.5222C20.0528 22.4121 20.6762 22.2503 21.219 21.9883C21.7849 21.7152 22.4017 21.364 22.7837 21.0102C23.172 20.6506 23.6189 20.0119 23.9687 19.4512C24.0015 19.3987 24.005 19.3553 23.9953 19.313C23.9843 19.2653 23.9477 19.1902 23.8516 19.1176C23.6178 18.9411 23.2399 18.9411 23.0061 19.1177L21.5001 20.2553C20.8931 20.7139 20.119 21.2264 19.1484 21.3812C19.0549 21.3961 18.9578 21.4098 18.8571 21.4218C18.8042 21.4311 18.7491 21.4374 18.6921 21.4398C18.2124 21.4871 17.6584 21.4978 17.0481 21.4402C16.5899 21.3969 16.2535 20.9904 16.2968 20.5322C16.3401 20.074 16.7466 19.7376 17.2048 19.7809C17.7001 19.8277 18.1451 19.8187 18.524 19.7817C18.5282 19.7782 18.5327 19.7744 18.5376 19.7701C18.7139 19.6162 18.7343 19.3602 18.568 19.1734L19.1904 18.6193L18.568 19.1734C18.5225 19.1223 18.4643 19.0739 18.389 19.029L18.8159 18.3133L18.389 19.029C17.4651 18.4779 16.2089 18.3747 14.8473 18.6385C13.4963 18.9003 12.1514 19.5045 11.1487 20.2155C10.7733 20.4818 10.2531 20.3933 9.9869 20.0178C9.72067 19.6424 9.80917 19.1223 10.1846 18.856C11.3731 18.0131 12.9373 17.3109 14.5303 17.0023ZM18.639 19.8862L18.5579 19.7933L18.639 19.8862Z" fill="#5BBAA3"/>
<path fill-rule="evenodd" clip-rule="evenodd" d="M7.33331 18.9166C7.33331 17.766 8.26605 16.8333 9.41665 16.8333C10.5672 16.8333 11.5 17.766 11.5 18.9166V23.0833C11.5 24.2338 10.5672 25.1666 9.41665 25.1666C8.26605 25.1666 7.33331 24.2338 7.33331 23.0833V18.9166ZM9.41665 18.4999C9.18653 18.4999 8.99998 18.6865 8.99998 18.9166V23.0833C8.99998 23.3134 9.18653 23.4999 9.41665 23.4999C9.64676 23.4999 9.83331 23.3134 9.83331 23.0833V18.9166C9.83331 18.6865 9.64676 18.4999 9.41665 18.4999Z" fill="#5BBAA3"/>
</svg>
