<svg width="20" height="19" viewBox="0 0 20 19" fill="none" xmlns="http://www.w3.org/2000/svg">
<path d="M13.9565 3.11278L15.5034 1.56591C16.1746 0.894697 17.2629 0.894697 17.9341 1.56591C18.6053 2.23712 18.6053 3.32538 17.9341 3.99659L8.20033 13.7303C7.71572 14.215 7.11798 14.5712 6.46115 14.7669L4 15.5L4.73313 13.0389C4.92879 12.382 5.28503 11.7843 5.76964 11.2997L13.9565 3.11278ZM13.9565 3.11278L16.375 5.53124M15 11.8333V16.1875C15 17.3266 14.0766 18.25 12.9375 18.25H3.3125C2.17341 18.25 1.25 17.3266 1.25 16.1875V6.56249C1.25 5.4234 2.17341 4.49999 3.3125 4.49999H7.66667" stroke="#A3A3A3" stroke-width="1.5" stroke-linecap="round" stroke-linejoin="round"/>
</svg>
