<svg width="179" height="24" viewBox="0 0 179 24" fill="none" xmlns="http://www.w3.org/2000/svg">
    <path d="M38.3916 14.2049C38.3881 10.6367 35.4518 7.74715 31.8282 7.74194C28.2064 7.74541 25.2701 10.6367 25.2666 14.2049C25.2701 17.773 28.2064 20.6626 31.8282 20.6678C35.4518 20.6644 38.3881 17.773 38.3916 14.2049ZM27.9473 14.2049C27.9473 12.0945 29.6868 10.3851 31.83 10.3833C33.9731 10.3833 35.7092 12.0945 35.7127 14.2049C35.7127 16.3152 33.9731 18.0247 31.83 18.0264C29.6868 18.0247 27.9508 16.3135 27.9473 14.2049Z" fill="#5B7AC6"/>
    <path d="M52.6888 14.2049C52.6853 10.6367 49.749 7.74715 46.1254 7.74194C42.5018 7.74541 39.5673 10.6367 39.562 14.2049C39.5655 17.773 42.5018 20.6644 46.1254 20.6678C49.749 20.6644 52.6835 17.773 52.6888 14.2049ZM42.2445 14.2049C42.2445 12.0945 43.984 10.3851 46.1272 10.3833C48.2703 10.3833 50.0063 12.0963 50.0099 14.2049C50.0063 16.3152 48.2703 18.0247 46.1272 18.0264C43.984 18.0247 42.248 16.3135 42.2445 14.2049Z" fill="#5B7AC6"/>
    <path d="M96.6605 14.2049C96.657 10.6367 93.7207 7.74715 90.0971 7.74194C86.4735 7.74541 83.539 10.6367 83.5337 14.2049C83.5372 17.773 86.4735 20.6644 90.0971 20.6678C93.7207 20.6644 96.6552 17.773 96.6605 14.2049ZM86.2162 14.2049C86.2162 12.0945 87.9557 10.3851 90.0988 10.3833C92.242 10.3833 93.978 12.0963 93.9815 14.2049C93.978 16.3152 92.242 18.0247 90.0988 18.0264C87.9557 18.0247 86.2197 16.3135 86.2162 14.2049Z" fill="#2B4483"/>
    <path d="M64.2537 8.99837C63.1293 8.18096 61.7686 7.74188 60.371 7.74362C56.7474 7.74709 53.8129 10.6384 53.8076 14.2048C53.8111 17.773 56.7474 20.6643 60.371 20.6678C63.9946 20.6643 66.9291 17.773 66.9326 14.2048C66.9326 14.0573 66.9274 13.9098 66.9185 13.7657H66.9326V3.74854H64.2519V8.99837H64.2537ZM60.371 18.0281C58.2279 18.0264 56.4918 16.3152 56.4901 14.2048C56.4936 12.0945 58.2296 10.385 60.371 10.3833C62.5142 10.3833 64.2502 12.0945 64.2537 14.2048C64.252 16.3152 62.5142 18.0246 60.371 18.0281Z" fill="#5B7AC6"/>
    <path d="M24.5477 3.33203H20.7566L19.5687 4.50175C18.3456 3.88739 16.9938 3.56806 15.6208 3.57153C10.8287 3.57673 6.94423 7.40174 6.93894 12.1205C6.93894 13.4707 7.26323 14.8018 7.88714 16.0045L4.4292 19.4061H8.22377L9.48745 18.1617C11.1124 19.7671 13.3208 20.6695 15.6226 20.6678C20.4165 20.6626 24.2992 16.8376 24.3044 12.117C24.3044 11.6745 24.2692 11.2337 24.2005 10.7963H16.962L14.2813 13.436H21.4722C20.843 16.1191 18.4196 18.0229 15.6226 18.0264C12.3091 18.0229 9.62493 15.378 9.6214 12.117C9.62493 8.85434 12.3091 6.2112 15.6226 6.20773C17.2141 6.20426 18.7421 6.8273 19.8648 7.938L20.8324 6.98696L24.5477 3.33203Z" fill="#5B7AC6"/>
    <path d="M75.7945 6.88129C74.9168 7.22145 74.1907 7.76639 73.5844 8.46579C73.2319 8.87363 72.9534 9.33353 72.7366 9.82988C72.571 10.2099 72.4511 10.6022 72.3736 11.0065C72.3489 11.135 72.3383 11.2669 72.3154 11.3953C72.2449 11.7927 72.2431 12.1936 72.2661 12.5928C72.2802 12.8288 72.326 13.0648 72.3683 13.2991C72.4176 13.5803 72.4846 13.8579 72.5868 14.1269C72.7102 14.4463 72.8389 14.7621 73.0433 15.0433C73.1508 15.1908 73.2301 15.3591 73.3359 15.5066C73.6478 15.9405 74.0338 16.3067 74.4585 16.6312C74.7317 16.8395 75.0313 17.0044 75.338 17.1588C75.7839 17.3827 76.258 17.525 76.7427 17.6343C76.963 17.6847 77.1974 17.676 77.4265 17.6812C77.7015 17.6881 77.9782 17.6812 78.2531 17.6829C78.5721 17.6864 78.8823 17.6222 79.1802 17.5267C79.5062 17.4226 79.827 17.2925 80.1354 17.1449C80.4121 17.0113 80.6712 16.843 80.9338 16.6833C81.1206 16.5705 81.3004 16.4473 81.4819 16.3293C81.4996 16.3171 81.5225 16.3119 81.5771 16.2876C81.8838 17.3046 82.1869 18.3008 82.4901 19.3074C82.4249 19.349 82.372 19.3854 82.3156 19.4184C81.8556 19.6787 81.3797 19.9044 80.888 20.1022C80.4756 20.2688 80.0491 20.3677 79.6243 20.4788C79.3476 20.5517 79.0533 20.5552 78.7678 20.602C78.1368 20.7062 77.5023 20.6593 76.8696 20.6263C76.6405 20.6142 76.4078 20.5899 76.1769 20.5361C75.6993 20.4233 75.2164 20.3157 74.7599 20.1439C73.8452 19.7985 73.008 19.316 72.252 18.6999C71.9523 18.4552 71.6774 18.1897 71.4095 17.912C71.027 17.5146 70.701 17.0755 70.4067 16.6121C70.3185 16.4716 70.211 16.3414 70.1352 16.1939C70.0066 15.9422 69.8938 15.6819 69.7775 15.4233C69.6946 15.2376 69.61 15.0537 69.5448 14.8628C69.4814 14.6823 69.4567 14.4879 69.388 14.3109C69.3227 14.146 69.3086 13.9725 69.2663 13.8059C69.2117 13.5907 69.1923 13.3651 69.1765 13.1429C69.15 12.7785 69.1289 12.4123 69.1201 12.0461C69.113 11.7406 69.1271 11.4335 69.1377 11.1263C69.1412 11.0256 69.1571 10.9267 69.1747 10.826C69.2452 10.3939 69.3421 9.96698 69.4743 9.55046C69.7175 8.79032 70.0824 8.08919 70.5247 7.42276C70.7609 7.06699 71.0182 6.7303 71.309 6.41965C71.4588 6.25825 71.621 6.109 71.7796 5.95454C71.8642 5.87298 71.9506 5.79314 72.0405 5.71678C72.1973 5.58315 72.3489 5.44084 72.5181 5.32283C72.8071 5.11978 73.0979 4.91325 73.4064 4.74491C73.8029 4.52798 74.2118 4.33013 74.6277 4.15832C74.9714 4.01601 75.3327 3.91014 75.6993 3.83031C76.1822 3.72618 76.6616 3.6099 77.1622 3.6047C77.4177 3.60123 77.6715 3.54049 77.9253 3.54743C78.3941 3.55784 78.8612 3.58214 79.3229 3.67585C79.6384 3.74007 79.9574 3.78172 80.2711 3.85114C80.4262 3.88585 80.5725 3.96221 80.7223 4.01774C81.1259 4.16873 81.5225 4.33187 81.9067 4.52798C82.1217 4.63905 82.3297 4.75879 82.557 4.89069C82.097 5.79488 81.66 6.70254 81.1788 7.60325C81.0836 7.53904 81.0114 7.48697 80.9356 7.44185C80.4985 7.17806 80.0473 6.94724 79.5468 6.81361C79.3705 6.76675 79.2031 6.68518 79.018 6.66262C78.9299 6.65221 78.8453 6.6175 78.7572 6.60882C78.4822 6.57758 78.2055 6.53419 77.9288 6.52725C77.1921 6.50816 76.4766 6.61923 75.7857 6.8865" fill="#2B4483"/>
    <path d="M122.295 13.49C122.373 12.6153 122.671 11.8118 123.124 11.0603C123.217 10.9059 123.309 10.7497 123.42 10.6074C123.58 10.4026 123.756 10.2117 123.926 10.0138C124.007 9.91839 124.081 9.81426 124.172 9.72922C124.319 9.59385 124.474 9.46543 124.631 9.34221C124.773 9.2294 124.923 9.12701 125.071 9.02288C125.464 8.75041 125.894 8.55082 126.344 8.39116C126.636 8.28703 126.927 8.18117 127.225 8.09266C127.377 8.04754 127.539 8.04059 127.697 8.01977C128.133 7.9625 128.57 7.91217 129.01 7.9382C129.174 7.94861 129.336 7.98159 129.499 8.00415C129.518 8.00762 129.537 8.00935 129.555 8.00935C129.983 7.99894 130.394 8.10828 130.797 8.22629C131.453 8.41893 132.058 8.72958 132.627 9.10097C132.711 9.15651 132.8 9.21031 132.882 9.26758C132.986 9.33873 132.995 9.37691 132.941 9.48799C132.655 10.0781 132.368 10.6664 132.084 11.2564C132.022 11.3831 131.975 11.5168 131.915 11.6435C131.888 11.699 131.851 11.7511 131.811 11.817C131.7 11.7458 131.601 11.6782 131.499 11.6209C131.129 11.4092 130.76 11.1974 130.385 10.9944C130.179 10.8833 129.95 10.8313 129.717 10.8017C129.259 10.7427 128.797 10.7115 128.335 10.767C127.71 10.8434 127.16 11.0725 126.67 11.4751C126.287 11.7892 125.972 12.1485 125.743 12.5789C125.579 12.8843 125.443 13.2054 125.396 13.5473C125.332 13.9881 125.297 14.4324 125.362 14.8819C125.41 15.2099 125.485 15.524 125.611 15.8329C125.808 16.3189 126.116 16.7215 126.506 17.0738C126.823 17.3601 127.179 17.5823 127.584 17.7159C128.141 17.8999 128.718 17.9051 129.299 17.853C129.52 17.8322 129.735 17.8044 129.948 17.7454C130.463 17.5996 130.928 17.3567 131.368 17.0599C131.603 16.9002 131.843 16.7475 132.095 16.5826C132.417 17.4747 132.733 18.3494 133.052 19.2362C132.505 19.5694 131.966 19.92 131.36 20.1525C131.129 20.241 130.9 20.3365 130.667 20.4267C130.628 20.4424 130.582 20.4424 130.542 20.4545C129.701 20.72 128.836 20.6853 127.972 20.6419C127.771 20.6315 127.565 20.6142 127.371 20.5638C127.036 20.4753 126.71 20.3591 126.381 20.2532C126.085 20.1577 125.811 20.0172 125.54 19.8696C124.347 19.2188 123.471 18.2747 122.866 17.079C122.637 16.6243 122.489 16.1436 122.373 15.6507C122.311 15.3886 122.311 15.1214 122.26 14.861C122.2 14.5539 122.221 14.2484 122.23 13.9412C122.234 13.8198 122.271 13.6983 122.294 13.5768C122.294 13.549 122.294 13.5213 122.295 13.4935V13.49Z" fill="#2B4483"/>
    <path d="M154.199 20.6661C154.152 20.5724 154.101 20.4786 154.056 20.3814C153.947 20.142 153.843 19.9007 153.734 19.663C153.581 19.3297 153.436 18.9913 153.265 18.6668C153.091 18.3353 152.953 17.9865 152.793 17.6498C152.641 17.3322 152.497 17.0146 152.343 16.6988C152.224 16.4506 152.091 16.2076 151.973 15.9577C151.862 15.7234 151.764 15.4822 151.654 15.2462C151.612 15.1542 151.549 15.0691 151.506 14.9772C151.427 14.8001 151.363 14.6144 151.282 14.4392C151.046 13.9254 150.803 13.4152 150.563 12.9032C150.329 12.4052 150.094 11.9088 149.862 11.4107C149.626 10.9074 149.393 10.4007 149.153 9.89913C148.963 9.49996 148.76 9.10427 148.572 8.70338C148.462 8.47082 148.367 8.22959 148.26 7.97447C148.366 7.97447 148.452 7.97447 148.536 7.97447C149.509 7.97447 150.484 7.97447 151.457 7.97447C151.51 7.97447 151.564 7.97621 151.617 7.97795C151.695 7.97795 151.73 8.02133 151.758 8.09249C151.882 8.3962 152.014 8.69644 152.139 8.99841C152.252 9.27262 152.354 9.55029 152.469 9.82276C152.585 10.097 152.715 10.3642 152.83 10.6402C153.011 11.074 153.181 11.5114 153.364 11.9435C153.542 12.3652 153.736 12.7818 153.915 13.2035C154.032 13.476 154.129 13.7571 154.245 14.0313C154.37 14.3298 154.509 14.6214 154.64 14.9181C154.733 15.1299 154.82 15.3433 154.924 15.588C155.986 13.0438 157.039 10.5256 158.089 8.00918C158.272 7.96406 161.038 7.94497 161.563 7.98489C161.552 8.02307 161.549 8.05951 161.533 8.09249C161.337 8.50033 161.135 8.90469 160.942 9.31253C160.833 9.54509 160.747 9.78632 160.638 10.0189C160.378 10.5656 160.109 11.1053 159.851 11.652C159.55 12.2941 159.259 12.9414 158.96 13.5853C158.651 14.25 158.338 14.9147 158.027 15.5794C157.731 16.2146 157.435 16.848 157.139 17.4832C156.802 18.2034 156.466 18.9236 156.131 19.6456C155.99 19.9476 155.854 20.253 155.717 20.5567C155.683 20.6296 155.639 20.6713 155.549 20.6713C155.107 20.6678 154.663 20.6713 154.203 20.6713L154.199 20.6661Z" fill="#2B4483"/>
    <path d="M144.361 20.668C144.201 20.6628 144.04 20.6593 143.88 20.6541C143.868 20.642 143.857 20.6298 143.845 20.6177C143.841 20.5656 143.836 20.5118 143.836 20.4597C143.836 16.3692 143.836 12.2804 143.836 8.18987V7.98682H147.007V20.668H144.446C144.416 20.668 144.388 20.668 144.358 20.668H144.361Z" fill="#2B4483"/>
    <path d="M145.613 6.2582C144.581 6.27034 144.005 5.89201 143.559 5.2655C143.293 4.8889 143.27 4.47065 143.286 4.04025C143.307 3.45018 143.614 2.99896 144.047 2.6293C144.324 2.39327 144.668 2.28047 145.031 2.20237C145.457 2.11039 145.847 2.21973 146.231 2.3603C146.517 2.46443 146.755 2.65533 146.956 2.88095C147.178 3.13085 147.34 3.41547 147.423 3.73827C147.648 4.60775 147.252 5.41822 146.608 5.87465C146.217 6.15233 145.865 6.2582 145.614 6.2582H145.613Z" fill="#2B4483"/>
    <path d="M98.2833 20.562V20.6679C98.2181 20.6332 98.2181 20.5967 98.2833 20.562Z" fill="#2B4483"/>
    <path d="M98.2833 20.562C98.2833 20.5967 98.2833 20.6332 98.2833 20.6679C98.2181 20.6332 98.2181 20.5967 98.2833 20.562Z" fill="#2B4483"/>
    <path d="M133.972 20.5532C133.972 20.5914 133.972 20.6296 133.972 20.6678C133.952 20.6452 133.931 20.6244 133.912 20.6018C133.931 20.5862 133.952 20.5688 133.972 20.5532Z" fill="#2B4483"/>
    <path d="M133.972 20.5532C133.972 20.5914 133.972 20.6296 133.972 20.6678C133.952 20.6452 133.931 20.6244 133.912 20.6018C133.931 20.5862 133.952 20.5688 133.972 20.5532Z" fill="#2B4483"/>
    <path d="M98.2833 20.562V20.6679C98.2181 20.6332 98.2181 20.5967 98.2833 20.562Z" fill="#2B4483"/>
    <path d="M98.2833 20.562C98.2833 20.5967 98.2833 20.6332 98.2833 20.6679C98.2181 20.6332 98.2181 20.5967 98.2833 20.562Z" fill="#2B4483"/>
    <path d="M98.2833 20.562C98.2833 20.5967 98.2833 20.6332 98.2833 20.6679C98.2181 20.6332 98.2181 20.5967 98.2833 20.562Z" fill="#2B4483"/>
    <path d="M135.219 20.5532C135.219 20.5914 135.219 20.6296 135.219 20.6678C135.2 20.6452 135.179 20.6244 135.159 20.6018C135.179 20.5862 135.2 20.5688 135.219 20.5532Z" fill="#2B4483"/>
    <path d="M98.2833 20.562C98.2833 20.5967 98.2833 20.6332 98.2833 20.6679C98.2181 20.6332 98.2181 20.5967 98.2833 20.562Z" fill="#2B4483"/>
    <path d="M135.219 20.5532C135.219 20.5914 135.219 20.6296 135.219 20.6678C135.2 20.6452 135.179 20.6244 135.159 20.6018C135.179 20.5862 135.2 20.5688 135.219 20.5532Z" fill="#2B4483"/>
    <path d="M98.2833 20.562C98.2833 20.5967 98.2833 20.6332 98.2833 20.6679C98.2181 20.6332 98.2181 20.5967 98.2833 20.562Z" fill="#2B4483"/>
    <path d="M83.5688 20.595C83.5688 20.6193 83.5723 20.6436 83.5723 20.6679C83.5195 20.647 83.5195 20.6227 83.5688 20.595Z" fill="#2B4483"/>
    <path d="M160.868 20.595C160.905 20.6175 160.916 20.6418 160.872 20.6679C160.817 20.6453 160.817 20.621 160.868 20.595Z" fill="#2B4483"/>
    <path d="M160.872 20.595C160.916 20.621 160.907 20.6453 160.868 20.6679C160.815 20.6418 160.817 20.6175 160.872 20.595Z" fill="#2B4483"/>
    <path d="M135.219 20.5898C135.219 20.6159 135.219 20.6419 135.219 20.6679C135.202 20.6523 135.184 20.6367 135.167 20.6211C135.184 20.6107 135.202 20.6003 135.219 20.5898Z" fill="#2B4483"/>
    <path d="M122.291 20.5898C122.291 20.6159 122.291 20.6419 122.29 20.6679C122.272 20.6575 122.254 20.6471 122.237 20.6367C122.254 20.6211 122.274 20.6055 122.291 20.5898Z" fill="#2B4483"/>
    <path d="M135.227 20.595C135.264 20.6175 135.276 20.6418 135.23 20.6679C135.175 20.647 135.174 20.6227 135.227 20.595Z" fill="#2B4483"/>
    <path d="M104.068 20.5898C104.068 20.6159 104.068 20.6419 104.068 20.6679C104.05 20.6523 104.033 20.6367 104.015 20.6211C104.033 20.6107 104.05 20.6003 104.068 20.5898Z" fill="#2B4483"/>
    <path d="M98.3115 20.5967C98.2974 20.6192 98.2833 20.6435 98.271 20.6661C98.2604 20.6505 98.2498 20.6349 98.2393 20.6192C98.2639 20.6123 98.2868 20.6036 98.3115 20.5967Z" fill="#2B4483"/>
    <path d="M144.264 20.6157C144.291 20.6157 144.317 20.6157 144.343 20.6157C144.328 20.6331 144.312 20.6504 144.296 20.6678C144.285 20.6504 144.275 20.6331 144.264 20.6157Z" fill="#2B4483"/>
    <path d="M138.122 20.6679C138.097 20.6662 138.073 20.6645 138.048 20.661C138.097 20.6176 138.108 20.6193 138.122 20.6679Z" fill="#2B4483"/>
    <path d="M104.068 20.6262V20.6679C104.054 20.6592 104.039 20.6505 104.025 20.6401C104.039 20.6349 104.054 20.6297 104.068 20.6262Z" fill="#2B4483"/>
    <path d="M138.17 20.6678C138.159 20.6556 138.147 20.6435 138.136 20.6331C138.147 20.6452 138.159 20.6574 138.17 20.6678Z" fill="#2B4483"/>
    <path d="M169.281 20.6678C169.283 20.6452 169.286 20.6226 169.288 20.6018C169.298 20.6174 169.311 20.6348 169.321 20.6504C169.307 20.6556 169.295 20.6625 169.281 20.6678Z" fill="#2B4483"/>
    <path d="M93.0472 20.6679C93.0331 20.6592 93.019 20.6505 93.0049 20.6401C93.019 20.6349 93.0331 20.6297 93.0472 20.6245C93.0472 20.6384 93.0472 20.6523 93.0472 20.6662V20.6679Z" fill="#2B4483"/>
    <path d="M114.502 7.52686C110.64 7.52686 108.046 10.1631 108.046 14.087C108.046 18.0109 110.7 20.6679 114.502 20.6679C117.357 20.6679 119.636 19.132 120.447 16.6572L120.521 16.4299H117.36L117.313 16.5271C116.775 17.6118 115.829 18.1619 114.502 18.1619C112.664 18.1619 111.352 17.0165 111.113 15.2255H120.681L120.704 15.0797C120.767 14.6823 120.797 14.2744 120.797 13.7937C120.797 10.104 118.208 7.52686 114.502 7.52686ZM111.146 12.8114C111.462 11.1158 112.716 10.0329 114.387 10.0329C116.247 10.0329 117.591 11.1662 117.718 12.8114H111.146Z" fill="#2B4483"/>
    <path d="M167.71 7.52686C163.849 7.52686 161.254 10.1631 161.254 14.087C161.254 18.0109 163.909 20.6679 167.71 20.6679C170.565 20.6679 172.844 19.132 173.655 16.6572L173.729 16.4299H170.569L170.521 16.5271C169.984 17.6118 169.037 18.1619 167.71 18.1619C165.872 18.1619 164.561 17.0165 164.321 15.2255H173.889L173.912 15.0797C173.976 14.6823 174.006 14.2744 174.006 13.7937C174.006 10.104 171.417 7.52686 167.71 7.52686ZM164.355 12.8114C164.67 11.1158 165.925 10.0329 167.596 10.0329C169.455 10.0329 170.8 11.1662 170.927 12.8114H164.355Z" fill="#2B4483"/>
    <path d="M141.786 10.3677V7.92933H138.727V4.85059H135.748V7.93107H134.264V10.3694H135.748V17.0545C135.748 19.4859 136.994 20.6678 139.555 20.6678H141.786V18.1843H140.012C139.039 18.1843 138.727 17.9101 138.727 17.0545V10.3694H141.786V10.3677Z" fill="#2B4483"/>
    <path d="M98.3716 20.6679H101.052V3.83545H98.3716V20.6679Z" fill="#2B4483"/>
    <path d="M103.735 20.6679H106.416V3.83545H103.735V20.6679Z" fill="#2B4483"/>
</svg>
