<svg width="16" height="16" viewBox="0 0 16 16" fill="none" xmlns="http://www.w3.org/2000/svg">
<path fill-rule="evenodd" clip-rule="evenodd" d="M14.6668 8.00016C14.6668 11.6821 11.6821 14.6668 8.00016 14.6668C4.31826 14.6668 1.3335 11.6821 1.3335 8.00016C1.3335 4.31826 4.31826 1.3335 8.00016 1.3335C11.6821 1.3335 14.6668 4.31826 14.6668 8.00016ZM8.00016 11.8335C8.27631 11.8335 8.50016 11.6096 8.50016 11.3335V7.3335C8.50016 7.05735 8.27631 6.8335 8.00016 6.8335C7.72402 6.8335 7.50016 7.05735 7.50016 7.3335V11.3335C7.50016 11.6096 7.72402 11.8335 8.00016 11.8335ZM8.00016 4.66683C8.36835 4.66683 8.66683 4.96531 8.66683 5.3335C8.66683 5.70169 8.36835 6.00016 8.00016 6.00016C7.63197 6.00016 7.3335 5.70169 7.3335 5.3335C7.3335 4.96531 7.63197 4.66683 8.00016 4.66683Z" fill="#AB5200"/>
</svg>
