<svg width="29" height="28" viewBox="0 0 29 28" fill="none" xmlns="http://www.w3.org/2000/svg">
<rect x="0.5" width="28" height="28" rx="14" fill="#E2EAFF"/>
<g clip-path="url(#clip0_5022_86966)">
<path d="M14.5 7.44062C16.6375 7.44062 16.8906 7.45 17.7313 7.4875C18.5125 7.52187 18.9344 7.65313 19.2156 7.7625C19.5875 7.90625 19.8563 8.08125 20.1344 8.35938C20.4156 8.64062 20.5875 8.90625 20.7313 9.27813C20.8406 9.55938 20.9719 9.98438 21.0063 10.7625C21.0438 11.6062 21.0531 11.8594 21.0531 13.9938C21.0531 16.1313 21.0438 16.3844 21.0063 17.225C20.9719 18.0063 20.8406 18.4281 20.7313 18.7094C20.5875 19.0813 20.4125 19.35 20.1344 19.6281C19.8531 19.9094 19.5875 20.0813 19.2156 20.225C18.9344 20.3344 18.5094 20.4656 17.7313 20.5C16.8875 20.5375 16.6344 20.5469 14.5 20.5469C12.3625 20.5469 12.1094 20.5375 11.2688 20.5C10.4875 20.4656 10.0656 20.3344 9.78438 20.225C9.4125 20.0813 9.14375 19.9063 8.86563 19.6281C8.58438 19.3469 8.4125 19.0813 8.26875 18.7094C8.15938 18.4281 8.02813 18.0031 7.99375 17.225C7.95625 16.3813 7.94688 16.1281 7.94688 13.9938C7.94688 11.8563 7.95625 11.6031 7.99375 10.7625C8.02813 9.98125 8.15938 9.55938 8.26875 9.27813C8.4125 8.90625 8.5875 8.6375 8.86563 8.35938C9.14688 8.07812 9.4125 7.90625 9.78438 7.7625C10.0656 7.65313 10.4906 7.52187 11.2688 7.4875C12.1094 7.45 12.3625 7.44062 14.5 7.44062ZM14.5 6C12.3281 6 12.0563 6.00937 11.2031 6.04688C10.3531 6.08438 9.76875 6.22187 9.2625 6.41875C8.73438 6.625 8.2875 6.89688 7.84375 7.34375C7.39688 7.7875 7.125 8.23438 6.91875 8.75938C6.72187 9.26875 6.58438 9.85 6.54688 10.7C6.50938 11.5563 6.5 11.8281 6.5 14C6.5 16.1719 6.50938 16.4438 6.54688 17.2969C6.58438 18.1469 6.72187 18.7313 6.91875 19.2375C7.125 19.7656 7.39688 20.2125 7.84375 20.6562C8.2875 21.1 8.73438 21.375 9.25938 21.5781C9.76875 21.775 10.35 21.9125 11.2 21.95C12.0531 21.9875 12.325 21.9969 14.4969 21.9969C16.6688 21.9969 16.9406 21.9875 17.7938 21.95C18.6438 21.9125 19.2281 21.775 19.7344 21.5781C20.2594 21.375 20.7063 21.1 21.15 20.6562C21.5938 20.2125 21.8688 19.7656 22.0719 19.2406C22.2688 18.7313 22.4063 18.15 22.4438 17.3C22.4813 16.4469 22.4906 16.175 22.4906 14.0031C22.4906 11.8313 22.4813 11.5594 22.4438 10.7063C22.4063 9.85625 22.2688 9.27188 22.0719 8.76562C21.875 8.23438 21.6031 7.7875 21.1563 7.34375C20.7125 6.9 20.2656 6.625 19.7406 6.42188C19.2313 6.225 18.65 6.0875 17.8 6.05C16.9438 6.00938 16.6719 6 14.5 6Z" fill="#2B4483"/>
<path d="M14.5 9.89062C12.2313 9.89062 10.3906 11.7313 10.3906 14C10.3906 16.2688 12.2313 18.1094 14.5 18.1094C16.7688 18.1094 18.6094 16.2688 18.6094 14C18.6094 11.7313 16.7688 9.89062 14.5 9.89062ZM14.5 16.6656C13.0281 16.6656 11.8344 15.4719 11.8344 14C11.8344 12.5281 13.0281 11.3344 14.5 11.3344C15.9719 11.3344 17.1656 12.5281 17.1656 14C17.1656 15.4719 15.9719 16.6656 14.5 16.6656Z" fill="#2B4483"/>
<path d="M19.7312 9.72818C19.7312 10.2594 19.3 10.6876 18.7719 10.6876C18.2406 10.6876 17.8125 10.2563 17.8125 9.72818C17.8125 9.19692 18.2438 8.7688 18.7719 8.7688C19.3 8.7688 19.7312 9.20005 19.7312 9.72818Z" fill="#2B4483"/>
</g>
<defs>
<clipPath id="clip0_5022_86966">
<rect width="16" height="16" fill="white" transform="translate(6.5 6)"/>
</clipPath>
</defs>
</svg>
