<svg width="29" height="28" viewBox="0 0 29 28" fill="none" xmlns="http://www.w3.org/2000/svg">
<rect x="0.5" width="28" height="28" rx="14" fill="#E2EAFF"/>
<path d="M17.1667 8.66675C18.6167 8.67482 19.402 8.73912 19.9142 9.25138C20.5 9.83716 20.5 10.78 20.5 12.6656V16.6656C20.5 18.5512 20.5 19.494 19.9142 20.0798C19.3284 20.6656 18.3856 20.6656 16.5 20.6656H12.5C10.6144 20.6656 9.67157 20.6656 9.08579 20.0798C8.5 19.494 8.5 18.5512 8.5 16.6656V12.6656C8.5 10.78 8.5 9.83716 9.08579 9.25138C9.59804 8.73912 10.3833 8.67482 11.8333 8.66675" stroke="#2B4483"/>
<path d="M12.5 14.9333L13.6429 15.9999L16.5 13.3333" stroke="#2B4483" stroke-linecap="round" stroke-linejoin="round"/>
<path d="M11.8333 8.33325C11.8333 7.78097 12.281 7.33325 12.8333 7.33325H16.1666C16.7189 7.33325 17.1666 7.78097 17.1666 8.33325V8.99992C17.1666 9.5522 16.7189 9.99992 16.1666 9.99992H12.8333C12.281 9.99992 11.8333 9.5522 11.8333 8.99992V8.33325Z" stroke="#2B4483"/>
</svg>
