<svg width="29" height="28" viewBox="0 0 29 28" fill="none" xmlns="http://www.w3.org/2000/svg">
<rect x="0.5" width="28" height="28" rx="14" fill="#DBFDF4"/>
<path fill-rule="evenodd" clip-rule="evenodd" d="M11.2144 6.66656C11.2524 6.66658 11.2909 6.66661 11.33 6.66661H17.67C17.7091 6.66661 17.7476 6.66658 17.7856 6.66656C18.4445 6.66608 18.939 6.66573 19.3595 6.81204C20.1519 7.08776 20.7654 7.72473 21.0281 8.52496C21.1674 8.94929 21.1671 9.44885 21.1667 10.1324C21.1667 10.1699 21.1667 10.208 21.1667 10.2467V19.5827C21.1667 20.685 19.8727 21.3572 19.0002 20.5902L18.7001 20.8649C18.0176 21.4894 16.9824 21.4894 16.2999 20.8649C16.127 20.7066 15.873 20.7066 15.7001 20.8649C15.0176 21.4894 13.9824 21.4894 13.2999 20.8649C13.127 20.7066 12.873 20.7066 12.7001 20.8649C12.0176 21.4894 10.9824 21.4894 10.2999 20.8649L9.99979 20.5902C9.12727 21.3572 7.83334 20.685 7.83334 19.5827V10.2467C7.83334 10.208 7.83332 10.1699 7.8333 10.1324C7.83289 9.44885 7.83259 8.94929 7.97191 8.52496C8.23465 7.72473 8.84814 7.08776 9.64051 6.81204C10.061 6.66573 10.5555 6.66608 11.2144 6.66656ZM11.33 7.99995C10.5021 7.99995 10.257 8.00927 10.0787 8.07132C9.6895 8.20674 9.37534 8.52475 9.23871 8.94088C9.17507 9.13471 9.16667 9.39872 9.16667 10.2467V19.5474C9.66519 19.1305 10.3939 19.1435 10.878 19.5865L11.2001 19.8812C11.373 20.0395 11.627 20.0395 11.7999 19.8812C12.4824 19.2567 13.5176 19.2567 14.2001 19.8812C14.373 20.0395 14.627 20.0395 14.7999 19.8812C15.4824 19.2567 16.5176 19.2567 17.2001 19.8812C17.373 20.0395 17.627 20.0395 17.7999 19.8812L18.122 19.5865C18.6062 19.1435 19.3348 19.1305 19.8333 19.5474V10.2467C19.8333 9.39872 19.8249 9.13471 19.7613 8.94088C19.6247 8.52475 19.3105 8.20674 18.9213 8.07132C18.743 8.00927 18.4979 7.99995 17.67 7.99995H11.33ZM10.5 10.9999C10.5 10.6318 10.7985 10.3333 11.1667 10.3333H11.5C11.8682 10.3333 12.1667 10.6318 12.1667 10.9999C12.1667 11.3681 11.8682 11.6666 11.5 11.6666H11.1667C10.7985 11.6666 10.5 11.3681 10.5 10.9999ZM12.8333 10.9999C12.8333 10.6318 13.1318 10.3333 13.5 10.3333H17.8333C18.2015 10.3333 18.5 10.6318 18.5 10.9999C18.5 11.3681 18.2015 11.6666 17.8333 11.6666H13.5C13.1318 11.6666 12.8333 11.3681 12.8333 10.9999ZM10.5 13.3333C10.5 12.9651 10.7985 12.6666 11.1667 12.6666H11.5C11.8682 12.6666 12.1667 12.9651 12.1667 13.3333C12.1667 13.7015 11.8682 13.9999 11.5 13.9999H11.1667C10.7985 13.9999 10.5 13.7015 10.5 13.3333ZM12.8333 13.3333C12.8333 12.9651 13.1318 12.6666 13.5 12.6666H17.8333C18.2015 12.6666 18.5 12.9651 18.5 13.3333C18.5 13.7015 18.2015 13.9999 17.8333 13.9999H13.5C13.1318 13.9999 12.8333 13.7015 12.8333 13.3333ZM10.5 15.6666C10.5 15.2984 10.7985 14.9999 11.1667 14.9999H11.5C11.8682 14.9999 12.1667 15.2984 12.1667 15.6666C12.1667 16.0348 11.8682 16.3333 11.5 16.3333H11.1667C10.7985 16.3333 10.5 16.0348 10.5 15.6666ZM12.8333 15.6666C12.8333 15.2984 13.1318 14.9999 13.5 14.9999H17.8333C18.2015 14.9999 18.5 15.2984 18.5 15.6666C18.5 16.0348 18.2015 16.3333 17.8333 16.3333H13.5C13.1318 16.3333 12.8333 16.0348 12.8333 15.6666Z" fill="#5BBAA3"/>
</svg>
