<svg width="20" height="20" viewBox="0 0 20 20" fill="none" xmlns="http://www.w3.org/2000/svg">
<path fill-rule="evenodd" clip-rule="evenodd" d="M17.2915 5.83325C17.2915 6.17843 17.0117 6.45825 16.6665 6.45825L3.33317 6.45825C2.98799 6.45825 2.70817 6.17843 2.70817 5.83325C2.70817 5.48807 2.98799 5.20825 3.33317 5.20825L16.6665 5.20825C17.0117 5.20825 17.2915 5.48807 17.2915 5.83325Z" fill="#2B4483"/>
<path fill-rule="evenodd" clip-rule="evenodd" d="M17.2915 10C17.2915 10.3452 17.0117 10.625 16.6665 10.625L3.33317 10.625C2.98799 10.625 2.70817 10.3452 2.70817 10C2.70817 9.65482 2.98799 9.375 3.33317 9.375L16.6665 9.375C17.0117 9.375 17.2915 9.65482 17.2915 10Z" fill="#2B4483"/>
<path fill-rule="evenodd" clip-rule="evenodd" d="M17.2915 14.1667C17.2915 14.5119 17.0117 14.7917 16.6665 14.7917L3.33317 14.7917C2.98799 14.7917 2.70817 14.5119 2.70817 14.1667C2.70817 13.8216 2.98799 13.5417 3.33317 13.5417L16.6665 13.5417C17.0117 13.5417 17.2915 13.8216 17.2915 14.1667Z" fill="#2B4483"/>
</svg>
