<svg width="48" height="48" viewBox="0 0 48 48" fill="none" xmlns="http://www.w3.org/2000/svg">
<rect width="48" height="48" rx="24" fill="#E6E6E6"/>
<path d="M31 24C31 24.5523 30.5523 25 30 25C29.4477 25 29 24.5523 29 24C29 23.4477 29.4477 23 30 23C30.5523 23 31 23.4477 31 24Z" fill="#959090"/>
<path fill-rule="evenodd" clip-rule="evenodd" d="M21.9436 15.25H25.0564C26.8942 15.25 28.3498 15.25 29.489 15.4031C30.6614 15.5608 31.6104 15.8929 32.3588 16.6412C33.2831 17.5656 33.5777 18.8036 33.6847 20.4101C34.2619 20.6641 34.6978 21.2013 34.7458 21.8818C34.7501 21.942 34.75 22.0069 34.75 22.067C34.75 22.0725 34.75 22.0779 34.75 22.0833V25.9167C34.75 25.9221 34.75 25.9275 34.75 25.933C34.75 25.9931 34.7501 26.058 34.7458 26.1182C34.6978 26.7987 34.2619 27.3359 33.6847 27.5899C33.5777 29.1964 33.2831 30.4344 32.3588 31.3588C31.6104 32.1071 30.6614 32.4392 29.489 32.5969C28.3498 32.75 26.8942 32.75 25.0564 32.75H21.9436C20.1058 32.75 18.6502 32.75 17.511 32.5969C16.3386 32.4392 15.3896 32.1071 14.6412 31.3588C13.8929 30.6104 13.5608 29.6614 13.4031 28.489C13.25 27.3498 13.25 25.8942 13.25 24.0564V23.9436C13.25 22.1058 13.25 20.6502 13.4031 19.511C13.5608 18.3386 13.8929 17.3896 14.6412 16.6412C15.3896 15.8929 16.3386 15.5608 17.511 15.4031C18.6502 15.25 20.1058 15.25 21.9436 15.25ZM32.1679 27.75H30.2308C28.0856 27.75 26.25 26.1224 26.25 24C26.25 21.8776 28.0856 20.25 30.2308 20.25H32.1679C32.0541 18.9085 31.7966 18.2004 31.2981 17.7019C30.8749 17.2787 30.2952 17.025 29.2892 16.8898C28.2615 16.7516 26.9068 16.75 25 16.75H22C20.0932 16.75 18.7385 16.7516 17.7108 16.8898C16.7048 17.025 16.1251 17.2787 15.7019 17.7019C15.2787 18.1251 15.025 18.7048 14.8898 19.7108C14.7516 20.7385 14.75 22.0932 14.75 24C14.75 25.9068 14.7516 27.2615 14.8898 28.2892C15.025 29.2952 15.2787 29.8749 15.7019 30.2981C16.1251 30.7213 16.7048 30.975 17.7108 31.1102C18.7385 31.2484 20.0932 31.25 22 31.25H25C26.9068 31.25 28.2615 31.2484 29.2892 31.1102C30.2952 30.975 30.8749 30.7213 31.2981 30.2981C31.7966 29.7996 32.0541 29.0915 32.1679 27.75ZM17.25 20C17.25 19.5858 17.5858 19.25 18 19.25H22C22.4142 19.25 22.75 19.5858 22.75 20C22.75 20.4142 22.4142 20.75 22 20.75H18C17.5858 20.75 17.25 20.4142 17.25 20ZM32.9235 21.7502C32.9032 21.75 32.8766 21.75 32.8333 21.75H30.2308C28.8074 21.75 27.75 22.8087 27.75 24C27.75 25.1913 28.8074 26.25 30.2308 26.25H32.8333C32.8766 26.25 32.9032 26.25 32.9235 26.2498C32.936 26.2496 32.9426 26.2495 32.9457 26.2493L32.9479 26.2492C33.1541 26.2367 33.2427 26.0976 33.2495 26.0139C33.2495 26.0139 33.2497 26.0076 33.2498 25.9986C33.25 25.9808 33.25 25.9572 33.25 25.9167V22.0833C33.25 22.0428 33.25 22.0192 33.2498 22.0014C33.2497 21.9924 33.2495 21.9861 33.2495 21.9861C33.2427 21.9024 33.1541 21.7633 32.9479 21.7508C32.9479 21.7508 32.943 21.7504 32.9235 21.7502Z" fill="#959090"/>
</svg>
