<svg width="32" height="32" viewBox="0 0 32 32" fill="none" xmlns="http://www.w3.org/2000/svg">
<rect width="32" height="32" rx="16" fill="#FCA5A5"/>
<path d="M17.952 12.3814C18.2547 12.684 18.7454 12.684 19.048 12.3814C19.3507 12.0787 19.3507 11.588 19.048 11.2853L16.548 8.78534C16.2454 8.48268 15.7547 8.48268 15.452 8.78534L12.952 11.2853C12.6493 11.588 12.6493 12.0787 12.952 12.3814C13.2547 12.684 13.7454 12.684 14.048 12.3814L15.225 11.2044V17.6667C15.225 18.0947 15.572 18.4417 16 18.4417C16.428 18.4417 16.775 18.0947 16.775 17.6667V11.2044L17.952 12.3814ZM23.4417 16C23.4417 15.572 23.0947 15.225 22.6667 15.225C22.2387 15.225 21.8917 15.572 21.8917 16C21.8917 19.2539 19.2539 21.8917 16 21.8917C12.7461 21.8917 10.1083 19.2539 10.1083 16C10.1083 15.572 9.76136 15.225 9.33334 15.225C8.90532 15.225 8.55834 15.572 8.55834 16C8.55834 20.1099 11.8901 23.4417 16 23.4417C20.1099 23.4417 23.4417 20.1099 23.4417 16Z" fill="#B91C1C" stroke="#B91C1C" stroke-width="0.3"/>
</svg>
