<svg width="191" height="224" viewBox="0 0 191 224" fill="none" xmlns="http://www.w3.org/2000/svg">
<g clip-path="url(#clip0_5113_87297)">
<path d="M135.715 187.977L137.599 224C137.599 224 57.9123 148.465 47.9848 126.365C38.0573 104.264 56.7444 49.5947 56.7444 49.5947L98.2065 72.2768L135.715 187.977Z" fill="#9F616A"/>
<path d="M13.5302 34.4734L1.26681 35.6366C1.26681 35.6366 -5.15691 49.5948 14.6982 50.758L13.5302 34.4734Z" fill="#9F616A"/>
<path d="M13.5302 55.9922L1.26681 57.1554C1.26681 57.1554 -5.15691 71.1136 14.6982 72.2768L13.5302 55.9922Z" fill="#9F616A"/>
<path d="M13.5302 79.2559L1.26681 80.419C1.26681 80.419 -5.15691 94.3773 14.6982 95.5404L13.5302 79.2559Z" fill="#9F616A"/>
<path d="M17.0341 102.52L4.77072 103.683C4.77072 103.683 -1.653 117.641 18.2021 118.804L17.0341 102.52Z" fill="#9F616A"/>
<path d="M7.56006 40.0808H8.49058V14.6935C8.49058 12.7639 8.87219 10.8532 9.61363 9.07055C10.3551 7.28785 11.4418 5.66805 12.8118 4.30363C14.1818 2.93922 15.8082 1.8569 17.5982 1.11848C19.3882 0.380064 21.3067 1.47836e-06 23.2442 0H77.2508C79.1883 -3.94219e-06 81.1068 0.380052 82.8968 1.11847C84.6868 1.85688 86.3132 2.93919 87.6832 4.30361C89.0532 5.66802 90.14 7.28781 90.8814 9.07051C91.6229 10.8532 92.0045 12.7639 92.0045 14.6935V153.97C92.0045 155.9 91.6229 157.811 90.8814 159.593C90.14 161.376 89.0533 162.996 87.6833 164.36C86.3133 165.725 84.6868 166.807 82.8968 167.545C81.1068 168.284 79.1883 168.664 77.2509 168.664H23.2443C19.3314 168.664 15.5787 167.116 12.8119 164.36C10.045 161.605 8.4906 157.867 8.49059 153.97V58.152H7.56006V40.0808Z" fill="#3F3D56"/>
<path d="M22.6487 3.82277H29.6984C29.3742 4.61435 29.2504 5.47318 29.338 6.32361C29.4256 7.17405 29.7219 7.98998 30.2007 8.69953C30.6795 9.40907 31.3261 9.99047 32.0837 10.3925C32.8412 10.7945 33.6865 11.0048 34.5448 11.0049H65.4846C66.343 11.0048 67.1882 10.7945 67.9457 10.3925C68.7033 9.99047 69.35 9.40908 69.8288 8.69953C70.3076 7.98998 70.6038 7.17405 70.6914 6.32361C70.779 5.47318 70.6552 4.61434 70.331 3.82275H76.9154C79.8375 3.82275 82.64 4.97882 84.7062 7.03664C86.7725 9.09446 87.9333 11.8855 87.9333 14.7957V153.868C87.9333 155.309 87.6483 156.736 87.0946 158.067C86.5409 159.399 85.7293 160.608 84.7062 161.627C83.6831 162.646 82.4685 163.454 81.1318 164.006C79.795 164.557 78.3623 164.841 76.9154 164.841H22.6487C21.2018 164.841 19.7691 164.557 18.4324 164.006C17.0956 163.454 15.881 162.646 14.8579 161.627C13.8348 160.608 13.0232 159.399 12.4695 158.067C11.9158 156.736 11.6309 155.309 11.6309 153.868V14.7957C11.6309 13.3547 11.9158 11.9278 12.4695 10.5965C13.0232 9.26523 13.8348 8.05558 14.8579 7.03665C15.881 6.01772 17.0956 5.20946 18.4324 4.65802C19.7691 4.10658 21.2018 3.82276 22.6487 3.82277Z" fill="white"/>
<path d="M61.4088 42.7839H38.1558V48.3722H61.4088V42.7839Z" fill="#5B7AC6"/>
<path d="M62.5155 66.7966H37.0483V72.3849H62.5155V66.7966Z" fill="#E5E5E5"/>
<path d="M78.2021 78.801H21.3618V84.3893H78.2021V78.801Z" fill="#E5E5E5"/>
<path d="M78.2021 90.8054H21.3618V96.3937H78.2021V90.8054Z" fill="#E5E5E5"/>
<path d="M190.725 206.739L125.361 132.472L123.025 84.7811L98.4983 44.0696L91.4907 26.6218C91.4907 26.6218 75.1394 28.3666 88.5708 61.5174L94.1185 79.2559C89.1177 89.9831 86.5269 101.668 86.5269 113.495V154.142C86.5269 163.714 132.324 215.849 137.655 223.812L190.725 206.739Z" fill="#9F616A"/>
<path opacity="0.2" d="M93.4135 47.5193L98.2894 45.1327L98.1233 44.7958L93.6181 47.0011L86.8172 29.2434L86.4653 29.3774L93.4135 47.5193Z" fill="black"/>
<path opacity="0.2" d="M1.33191 35.4599L1.20166 35.812L8.42485 38.4619L8.5551 38.1098L1.33191 35.4599Z" fill="black"/>
<path opacity="0.2" d="M1.33191 57.224L1.20166 57.5762L8.42485 60.2261L8.5551 59.8739L1.33191 57.224Z" fill="black"/>
<path opacity="0.2" d="M1.33191 80.4892L1.20166 80.8413L8.42485 83.4912L8.5551 83.1391L1.33191 80.4892Z" fill="black"/>
<path opacity="0.2" d="M5.11662 103.761L4.95361 104.099L8.47028 105.78L8.63328 105.442L5.11662 103.761Z" fill="black"/>
<path d="M49.8111 144.621C58.8068 144.621 66.0993 137.358 66.0993 128.399C66.0993 119.44 58.8068 112.177 49.8111 112.177C40.8154 112.177 33.5229 119.44 33.5229 128.399C33.5229 137.358 40.8154 144.621 49.8111 144.621Z" fill="#5B7AC6"/>
<path d="M48.2586 135.247L43.3838 129.004L46.2187 126.808L48.5268 129.764L56.325 121.565L58.9327 124.026L48.2586 135.247Z" fill="white"/>
</g>
<defs>
<clipPath id="clip0_5113_87297">
<rect width="190.449" height="224" fill="white" transform="translate(0.275391)"/>
</clipPath>
</defs>
</svg>
