<svg width="28" height="29" viewBox="0 0 28 29" fill="none" xmlns="http://www.w3.org/2000/svg">
<rect y="0.5" width="28" height="28" rx="14" fill="#DBFDF4"/>
<path d="M16.4597 13.3738C16.2059 13.12 15.7943 13.12 15.5405 13.3738L14.6501 14.2642V9.16675C14.6501 8.80776 14.3591 8.51675 14.0001 8.51675C13.6411 8.51675 13.3501 8.80776 13.3501 9.16675V14.2642L12.4597 13.3738C12.2059 13.12 11.7943 13.12 11.5405 13.3738C11.2866 13.6276 11.2866 14.0392 11.5405 14.293L13.5405 16.293C13.7943 16.5469 14.2059 16.5469 14.4597 16.293L16.4597 14.293C16.7135 14.0392 16.7135 13.6276 16.4597 13.3738ZM19.9834 14.5001C19.9834 14.1411 19.6924 13.8501 19.3334 13.8501C18.9744 13.8501 18.6834 14.1411 18.6834 14.5001C18.6834 17.0866 16.5866 19.1834 14.0001 19.1834C11.4135 19.1834 9.31675 17.0866 9.31675 14.5001C9.31675 14.1411 9.02573 13.8501 8.66675 13.8501C8.30776 13.8501 8.01675 14.1411 8.01675 14.5001C8.01675 17.8046 10.6956 20.4834 14.0001 20.4834C17.3046 20.4834 19.9834 17.8046 19.9834 14.5001Z" fill="#5BBAA3" stroke="#5BBAA3" stroke-width="0.3"/>
</svg>
