<svg width="32" height="32" viewBox="0 0 32 32" fill="none" xmlns="http://www.w3.org/2000/svg">
<rect width="32" height="32" rx="16" fill="#FFC48E"/>
<path d="M17.9519 12.3813C18.2546 12.6839 18.7453 12.6839 19.0479 12.3813C19.3506 12.0786 19.3506 11.5879 19.0479 11.2852L16.5479 8.78524C16.2453 8.48259 15.7546 8.48259 15.4519 8.78524L12.9519 11.2852C12.6493 11.5879 12.6493 12.0786 12.9519 12.3813C13.2546 12.6839 13.7453 12.6839 14.0479 12.3813L15.2249 11.2043V17.6666C15.2249 18.0946 15.5719 18.4416 15.9999 18.4416C16.4279 18.4416 16.7749 18.0946 16.7749 17.6666V11.2043L17.9519 12.3813ZM23.4416 15.9999C23.4416 15.5719 23.0946 15.2249 22.6666 15.2249C22.2386 15.2249 21.8916 15.5719 21.8916 15.9999C21.8916 19.2538 19.2538 21.8916 15.9999 21.8916C12.746 21.8916 10.1083 19.2538 10.1083 15.9999C10.1083 15.5719 9.76127 15.2249 9.33325 15.2249C8.90523 15.2249 8.55825 15.5719 8.55825 15.9999C8.55825 20.1098 11.89 23.4416 15.9999 23.4416C20.1098 23.4416 23.4416 20.1098 23.4416 15.9999Z" fill="#D86800" stroke="#D86800" stroke-width="0.3"/>
</svg>
