<svg width="14" height="14" viewBox="0 0 14 14" fill="none" xmlns="http://www.w3.org/2000/svg">
<path d="M5.39813 1.6267C5.4584 1.26506 5.77129 1 6.13792 1H7.86723C8.23386 1 8.54675 1.26506 8.60703 1.6267L8.74936 2.48073C8.79093 2.7301 8.95757 2.93781 9.17875 3.06024C9.2282 3.08761 9.27708 3.11589 9.32537 3.14505C9.54206 3.27589 9.80561 3.31658 10.0427 3.22777L10.8539 2.92385C11.1972 2.79523 11.5832 2.93367 11.7665 3.25118L12.6312 4.74881C12.8145 5.06632 12.7414 5.46982 12.4584 5.70284L11.7888 6.25405C11.5938 6.41459 11.4971 6.66248 11.5018 6.91502C11.5023 6.94328 11.5026 6.97161 11.5026 7C11.5026 7.02839 11.5023 7.05671 11.5018 7.08497C11.4971 7.33751 11.5938 7.58541 11.7888 7.74594L12.4584 8.29715C12.7414 8.53017 12.8145 8.93367 12.6312 9.25118L11.7665 10.7488C11.5832 11.0663 11.1972 11.2048 10.8539 11.0761L10.0427 10.7722C9.80562 10.6834 9.54207 10.7241 9.32538 10.8549C9.27709 10.8841 9.2282 10.9124 9.17875 10.9398C8.95757 11.0622 8.79093 11.2699 8.74937 11.5193L8.60703 12.3733C8.54675 12.7349 8.23386 13 7.86723 13H6.13792C5.77129 13 5.4584 12.7349 5.39813 12.3733L5.25579 11.5193C5.21423 11.2699 5.04758 11.0622 4.8264 10.9398C4.77695 10.9124 4.72807 10.8841 4.67978 10.855C4.46309 10.7241 4.19954 10.6834 3.9625 10.7722L3.15125 11.0761C2.80792 11.2048 2.42193 11.0663 2.23861 10.7488L1.37396 9.25119C1.19065 8.93368 1.26375 8.53018 1.5468 8.29716L2.21637 7.74595C2.41137 7.58542 2.50804 7.33752 2.50336 7.08498C2.50284 7.05672 2.50258 7.02839 2.50258 7C2.50258 6.97161 2.50284 6.94329 2.50336 6.91503C2.50804 6.66249 2.41137 6.41459 2.21637 6.25406L1.5468 5.70285C1.26375 5.46983 1.19065 5.06633 1.37396 4.74882L2.23861 3.25119C2.42193 2.93368 2.80792 2.79524 3.15125 2.92386L3.96249 3.22778C4.19953 3.31658 4.46308 3.2759 4.67977 3.14505C4.72806 3.11589 4.77695 3.08761 4.8264 3.06024C5.04758 2.93781 5.21423 2.7301 5.25579 2.48073L5.39813 1.6267Z" stroke="#5777EB" stroke-width="1.5" stroke-linecap="round" stroke-linejoin="round"/>
<path d="M9.00242 6.99995C9.00242 8.10452 8.10699 8.99995 7.00242 8.99995C5.89785 8.99995 5.00242 8.10452 5.00242 6.99995C5.00242 5.89538 5.89785 4.99995 7.00242 4.99995C8.10699 4.99995 9.00242 5.89538 9.00242 6.99995Z" stroke="#5777EB" stroke-width="1.5" stroke-linecap="round" stroke-linejoin="round"/>
</svg>
