<svg width="29" height="28" viewBox="0 0 29 28" fill="none" xmlns="http://www.w3.org/2000/svg">
<rect x="0.5" width="28" height="28" rx="14" fill="#DBFDF4"/>
<path fill-rule="evenodd" clip-rule="evenodd" d="M7.5 10.3333C7.5 8.49238 8.99238 7 10.8333 7C12.6743 7 14.1667 8.49238 14.1667 10.3333C14.1667 12.1743 12.6743 13.6667 10.8333 13.6667C8.99238 13.6667 7.5 12.1743 7.5 10.3333ZM10.8333 8.33333C9.72876 8.33333 8.83333 9.22876 8.83333 10.3333C8.83333 11.4379 9.72876 12.3333 10.8333 12.3333C11.9379 12.3333 12.8333 11.4379 12.8333 10.3333C12.8333 9.22876 11.9379 8.33333 10.8333 8.33333Z" fill="#5BBAA3"/>
<path fill-rule="evenodd" clip-rule="evenodd" d="M14.8333 17.6666C14.8333 15.8256 16.3256 14.3333 18.1666 14.3333C20.0075 14.3333 21.4999 15.8256 21.4999 17.6666C21.4999 19.5075 20.0075 20.9999 18.1666 20.9999C16.3256 20.9999 14.8333 19.5075 14.8333 17.6666ZM18.1666 15.6666C17.062 15.6666 16.1666 16.562 16.1666 17.6666C16.1666 18.7712 17.062 19.6666 18.1666 19.6666C19.2712 19.6666 20.1666 18.7712 20.1666 17.6666C20.1666 16.562 19.2712 15.6666 18.1666 15.6666Z" fill="#5BBAA3"/>
<path fill-rule="evenodd" clip-rule="evenodd" d="M14.8333 10.3333C14.8333 8.49238 16.3256 7 18.1666 7C20.0075 7 21.4999 8.49238 21.4999 10.3333C21.4999 12.1743 20.0075 13.6667 18.1666 13.6667C16.3256 13.6667 14.8333 12.1743 14.8333 10.3333ZM18.1666 8.33333C17.062 8.33333 16.1666 9.22876 16.1666 10.3333C16.1666 11.4379 17.062 12.3333 18.1666 12.3333C19.2712 12.3333 20.1666 11.4379 20.1666 10.3333C20.1666 9.22876 19.2712 8.33333 18.1666 8.33333Z" fill="#5BBAA3"/>
<path fill-rule="evenodd" clip-rule="evenodd" d="M7.5 17.6666C7.5 15.8256 8.99238 14.3333 10.8333 14.3333C12.6743 14.3333 14.1667 15.8256 14.1667 17.6666C14.1667 19.5075 12.6743 20.9999 10.8333 20.9999C8.99238 20.9999 7.5 19.5075 7.5 17.6666ZM10.8333 15.6666C9.72876 15.6666 8.83333 16.562 8.83333 17.6666C8.83333 18.7712 9.72876 19.6666 10.8333 19.6666C11.9379 19.6666 12.8333 18.7712 12.8333 17.6666C12.8333 16.562 11.9379 15.6666 10.8333 15.6666Z" fill="#5BBAA3"/>
</svg>
