<svg width="32" height="32" viewBox="0 0 32 32" fill="none" xmlns="http://www.w3.org/2000/svg">
<rect width="32" height="32" rx="16" fill="#E2EAFF"/>
<path fill-rule="evenodd" clip-rule="evenodd" d="M7.46455 10.1916C7.91104 10.08 8.36349 10.3514 8.47511 10.7979L8.79342 12.0711C9.28072 14.0204 10.8122 15.5334 12.7615 16H19.3333C21.1815 16 22.7371 17.3834 22.9531 19.2189L23.4943 23.8193C23.5481 24.2764 23.2211 24.6906 22.764 24.7443C22.3069 24.7981 21.8928 24.4712 21.839 24.0141L21.2978 19.4136C21.2153 18.712 20.772 18.1321 20.1667 17.8505L20.1667 21.0549C20.1667 21.7936 20.1667 22.4301 20.0982 22.9399C20.0248 23.4861 19.8591 24.0098 19.4344 24.4345C19.0097 24.8592 18.4861 25.0248 17.9398 25.0983C17.4301 25.1668 16.7936 25.1667 16.0548 25.1667H15.9452C15.2064 25.1667 14.5699 25.1668 14.0602 25.0983C13.5139 25.0248 12.9903 24.8592 12.5656 24.4345C12.1408 24.0098 11.9752 23.4861 11.9018 22.9399C11.8332 22.4301 11.8333 21.7936 11.8333 21.0549L11.8333 17.4687C9.54005 16.7228 7.769 14.8453 7.17651 12.4754L6.85821 11.2021C6.74658 10.7557 7.01805 10.3032 7.46455 10.1916ZM13.5 17.6667V21C13.5 21.8093 13.5018 22.3324 13.5536 22.7178C13.6022 23.0792 13.6806 23.1925 13.7441 23.256C13.8075 23.3194 13.9208 23.3979 14.2822 23.4464C14.6677 23.4983 15.1908 23.5 16 23.5C16.8092 23.5 17.3323 23.4983 17.7177 23.4464C18.0792 23.3979 18.1925 23.3194 18.2559 23.256C18.3194 23.1925 18.3978 23.0792 18.4464 22.7178C18.4982 22.3324 18.5 21.8093 18.5 21V17.6667H13.5Z" fill="#5B7AC6"/>
<path fill-rule="evenodd" clip-rule="evenodd" d="M16 8.49992C14.6193 8.49992 13.5 9.61921 13.5 10.9999C13.5 12.3806 14.6193 13.4999 16 13.4999C17.3808 13.4999 18.5 12.3806 18.5 10.9999C18.5 9.61921 17.3808 8.49992 16 8.49992ZM11.8334 10.9999C11.8334 8.69873 13.6989 6.83325 16 6.83325C18.3012 6.83325 20.1667 8.69873 20.1667 10.9999C20.1667 13.3011 18.3012 15.1666 16 15.1666C13.6989 15.1666 11.8334 13.3011 11.8334 10.9999Z" fill="#5B7AC6"/>
</svg>
