<svg width="32" height="32" viewBox="0 0 32 32" fill="none" xmlns="http://www.w3.org/2000/svg">
<rect width="32" height="32" rx="16" fill="#DBFDF4"/>
<path fill-rule="evenodd" clip-rule="evenodd" d="M7.46467 10.1916C7.91117 10.08 8.36361 10.3514 8.47523 10.7979L8.79354 12.0711C9.28085 14.0204 10.8123 15.5334 12.7616 16H19.3334C21.1816 16 22.7372 17.3834 22.9532 19.2189L23.4944 23.8193C23.5482 24.2764 23.2212 24.6906 22.7641 24.7443C22.3071 24.7981 21.8929 24.4712 21.8392 24.0141L21.2979 19.4136C21.2154 18.712 20.7721 18.1321 20.1668 17.8505L20.1668 21.0549C20.1668 21.7936 20.1669 22.4301 20.0983 22.9399C20.0249 23.4861 19.8593 24.0098 19.4345 24.4345C19.0098 24.8592 18.4862 25.0248 17.9399 25.0983C17.4302 25.1668 16.7937 25.1667 16.055 25.1667H15.9453C15.2065 25.1667 14.57 25.1668 14.0603 25.0983C13.514 25.0248 12.9904 24.8592 12.5657 24.4345C12.141 24.0098 11.9753 23.4861 11.9019 22.9399C11.8334 22.4301 11.8334 21.7936 11.8334 21.0549L11.8334 17.4687C9.54017 16.7228 7.76912 14.8453 7.17664 12.4754L6.85833 11.2021C6.74671 10.7557 7.01817 10.3032 7.46467 10.1916ZM13.5001 17.6667V21C13.5001 21.8093 13.5019 22.3324 13.5537 22.7178C13.6023 23.0792 13.6808 23.1925 13.7442 23.256C13.8076 23.3194 13.9209 23.3979 14.2824 23.4464C14.6678 23.4983 15.1909 23.5 16.0001 23.5C16.8093 23.5 17.3324 23.4983 17.7179 23.4464C18.0793 23.3979 18.1926 23.3194 18.256 23.256C18.3195 23.1925 18.3979 23.0792 18.4465 22.7178C18.4983 22.3324 18.5001 21.8093 18.5001 21V17.6667H13.5001Z" fill="#5BBAA3"/>
<path fill-rule="evenodd" clip-rule="evenodd" d="M15.9999 8.49992C14.6192 8.49992 13.4999 9.61921 13.4999 10.9999C13.4999 12.3806 14.6192 13.4999 15.9999 13.4999C17.3806 13.4999 18.4999 12.3806 18.4999 10.9999C18.4999 9.61921 17.3806 8.49992 15.9999 8.49992ZM11.8333 10.9999C11.8333 8.69873 13.6987 6.83325 15.9999 6.83325C18.3011 6.83325 20.1666 8.69873 20.1666 10.9999C20.1666 13.3011 18.3011 15.1666 15.9999 15.1666C13.6987 15.1666 11.8333 13.3011 11.8333 10.9999Z" fill="#5BBAA3"/>
</svg>
