<svg width="32" height="32" viewBox="0 0 32 32" fill="none" xmlns="http://www.w3.org/2000/svg">
<rect width="32" height="32" rx="16" fill="#95EED8"/>
<g clip-path="url(#clip0_20962_11667)">
<path d="M25.2 14.4C24.8 12.1 23.5 10.1 21.6 8.8L21.1 9.6C24.6 12 25.5 16.8 23 20.3C21.6 22.2 19.5 23.4 17.2 23.6L18.3 22.7H17C17 22.6 15.2 24 15.2 24L16.6 25.8H17.9C17.9 25.9 16.8 24.6 16.8 24.6C19.5 24.6 22.1 23.2 23.7 20.9C25 19 25.5 16.7 25.1 14.4H25.2Z" fill="#27564B" stroke="#27564B" stroke-width="0.2" stroke-miterlimit="10"/>
<path d="M7.69999 17.3C7.29999 15.3 7.69999 13.2 8.99998 11.5C10.2 9.8 12 8.6 14.1 8.3L13.1 9.3H14.5L16.1 7.7L14.5 6.1H13.1L14.3 7.3C11.9 7.6 9.69999 8.9 8.29998 10.9C6.99998 12.8 6.49999 15.1 6.89999 17.4C7.29999 19.7 8.59999 21.7 10.5 23L11 22.2C9.29999 21 8.19998 19.3 7.79998 17.2L7.69999 17.3Z" fill="#27564B" stroke="#27564B" stroke-width="0.2" stroke-miterlimit="10"/>
<path d="M19.5 15.4C19.4 15.3 19.2 15.2 19.1 15.1C18.4 14.6 17.6 14.5 16.6 14.8C16.2 14.9 15.8 15.2 15.5 15.4C15.1 15.7 14.9 15.8 14.6 15.9C14.2 15.9 13.7 15.9 13.2 15.6C13.1 15.6 13 15.4 12.9 15.4C12.7 15.2 12.5 15.1 12.3 15C11.9 14.7 11.4 14.6 10.9 14.6H10.7V15.5H11.3C11.7 15.5 12 15.8 12.4 16.1C13 16.6 13.6 16.8 14.2 16.8C14.8 16.8 14.8 16.8 15.2 16.6C15.6 16.5 15.9 16.2 16.2 16C16.2 16 16.3 15.9 16.4 15.9C17.2 15.4 18.1 15.4 18.8 15.9C19.1 16.1 19.4 16.3 19.7 16.5C20.1 16.7 20.5 16.8 20.9 16.8H21.1V15.9H20.9C20.4 15.9 20 15.8 19.5 15.4Z" fill="#27564B" stroke="#27564B" stroke-width="0.2" stroke-miterlimit="10"/>
<path d="M14.6 13.3C14.2 13.3 13.7 13.3 13.2 13C13.1 13 13 12.8 12.9 12.8C12.7 12.6 12.5 12.5 12.3 12.4C11.9 12.1 11.4 12 10.9 12H10.7V12.9H11.3C11.7 12.9 12 13.2 12.4 13.5C13 14 13.6 14.2 14.2 14.2C14.8 14.2 14.8 14.2 15.2 14C15.6 13.9 15.9 13.6 16.2 13.4C16.2 13.4 16.3 13.3 16.4 13.3C17.2 12.8 18.1 12.8 18.8 13.3C19.1 13.5 19.4 13.7 19.7 13.9C20.1 14.1 20.5 14.2 20.9 14.2H21.1V13.3H20.9C20.4 13.3 20 13.2 19.5 12.8C19.4 12.7 19.2 12.6 19.1 12.5C18.4 12 17.6 11.9 16.6 12.2C16.2 12.3 15.8 12.6 15.5 12.8C15.1 13.1 14.9 13.2 14.6 13.3Z" fill="#27564B" stroke="#27564B" stroke-width="0.2" stroke-miterlimit="10"/>
<path d="M16.3 18.9C17.1 18.4 18 18.4 18.7 18.9C19 19.1 19.3 19.3 19.6 19.5C20 19.7 20.4 19.8 20.8 19.8H21V18.9H20.8C20.3 18.9 19.9 18.8 19.4 18.4C19.3 18.3 19.1 18.2 19 18.1C18.3 17.6 17.5 17.5 16.5 17.8C16.1 17.9 15.7 18.2 15.4 18.4C15 18.7 14.8 18.8 14.5 18.9C14.1 18.9 13.6 18.9 13.1 18.6C13 18.6 12.9 18.4 12.8 18.4C12.6 18.2 12.4 18.1 12.2 18C11.8 17.7 11.3 17.6 10.8 17.6H10.6V18.5H11.2C11.6 18.5 11.9 18.8 12.3 19.1C12.9 19.6 13.5 19.8 14.1 19.8C14.7 19.8 14.7 19.8 15.1 19.6C15.5 19.5 15.8 19.2 16.1 19C16.1 19 16.2 18.9 16.3 18.9Z" fill="#27564B" stroke="#27564B" stroke-width="0.2" stroke-miterlimit="10"/>
</g>
<defs>
<clipPath id="clip0_20962_11667">
<rect width="20" height="20" fill="white" transform="translate(6 6)"/>
</clipPath>
</defs>
</svg>
