<svg width="32" height="32" viewBox="0 0 32 32" fill="none" xmlns="http://www.w3.org/2000/svg">
<rect width="32" height="32" rx="16" fill="#95EED8"/>
<path d="M7.91666 11.3333H7.66666V9.91667H7.91666C8.66666 9.91667 9.33332 10 9.91666 10.3333C10.3333 10.5833 10.75 10.8333 11.1667 11.1667H11.3333C12.5833 12.1667 14 12.0833 15.25 11.25C15.25 11.25 15.4167 11.1667 15.5 11.0833C16.0833 10.6667 16.6667 10.25 17.4167 10.0833C18.9167 9.75001 20.1667 9.91667 21.25 10.6667C21.5 10.8333 21.75 11 21.9167 11.1667C22.0833 11.25 22.1667 11.3333 22.3333 11.4167C22.75 11.75 23.25 11.9167 23.8333 11.9167C23.8333 11.9167 24 11.9167 24.0833 11.9167H24.4167V13.3333H24.1667C23.5 13.3333 22.8333 13.3333 22.3333 13C21.75 12.6667 21.25 12.4167 20.8333 12.0833C19.6667 11.1667 17.9167 11.1667 16.75 12.0833C16.25 12.5 15.6667 12.8333 15.0833 13.0833C14.5 13.3333 13.9167 13.4167 13.3333 13.4167C12.3333 13.4167 11.3333 13.0833 10.4167 12.4167H10.3333C9.83332 12 9.41666 11.6667 8.91666 11.5833C8.74999 11.5833 8.49999 11.5833 8.33332 11.5C8.24999 11.5 8.16666 11.5 7.99999 11.5L7.91666 11.3333ZM21.8333 19.75C21.6667 19.5833 21.4167 19.5 21.25 19.3333C20.0833 18.5833 18.75 18.4167 17.25 18.8333C16.5833 19 16 19.4167 15.5 19.8333C14.9167 20.25 14.5 20.5 14 20.5833C13.3333 20.5833 12.5 20.6667 11.75 20.1667C11.5833 20.0833 11.4167 19.9167 11.3333 19.8333C11 19.5833 10.75 19.4167 10.4167 19.25C9.74999 18.8333 8.91666 18.5833 8.08332 18.6667H7.83332V20.0833H8.08332C8.08332 20.0833 8.24999 20.0833 8.33332 20.0833C8.49999 20.0833 8.66666 20.0833 8.74999 20.0833C9.41666 20.1667 9.91666 20.5833 10.5 21C11.4167 21.75 12.4167 22.0833 13.4167 22.0833C14.4167 22.0833 14.4167 22 15 21.8333C15.5833 21.6667 16.0833 21.25 16.5833 20.9167C16.6667 20.9167 16.75 20.75 16.8333 20.75C18.0833 19.9167 19.5 19.9167 20.75 20.75C21.1667 21 21.6667 21.3333 22.1667 21.6667C22.75 22 23.4167 22.1667 24.1667 22.0833H24.4167V20.5833H24.1667C23.4167 20.5833 22.75 20.4167 21.9167 19.75H21.8333ZM8.33332 15.75C8.58332 15.75 8.91666 15.8333 9.08332 15.9167C9.58332 16.1667 9.99999 16.4167 10.4167 16.75L10.5833 16.9167C11.4167 17.5 12.3333 17.75 13.25 17.75C14.1667 17.75 14.4167 17.6667 15.0833 17.4167C15.5833 17.25 16 16.9167 16.5 16.5833C16.6667 16.5 16.75 16.4167 16.9167 16.3333C17.9167 15.6667 19 15.5833 20.0833 16C20.4167 16.1667 20.8333 16.4167 21.1667 16.6667C21.25 16.75 21.4167 16.8333 21.5 16.9167C22.25 17.4167 23.0833 17.6667 23.9167 17.75C24 17.75 24.1667 17.75 24.25 17.6667C24.25 17.6667 24.3333 17.5 24.3333 17.3333C24.3333 17.1667 24.3333 17 24.3333 16.8333V16.4167H24.1667C24 16.4167 23.8333 16.4167 23.75 16.3333C23.4167 16.3333 23.1667 16.25 22.9167 16.0833C22.4167 15.8333 22 15.5833 21.5833 15.25C20.1667 14.25 18.6667 14 17 14.6667C16.4167 14.9167 15.8333 15.3333 15.4167 15.6667C14.25 16.5833 12.5 16.5833 11.3333 15.6667C10.9167 15.3333 10.5 15.0833 9.91666 14.75C9.33332 14.4167 8.74999 14.3333 7.99999 14.4167H7.74999V15.75H7.91666C8.08332 15.75 8.16666 15.8333 8.33332 15.8333V15.75Z" fill="#27564B"/>
</svg>
