<svg width="32" height="32" viewBox="0 0 32 32" fill="none" xmlns="http://www.w3.org/2000/svg">
<rect width="32" height="32" rx="16" fill="#FFC48E"/>
<path d="M21.8333 19.75C21.6667 19.5833 21.4167 19.5 21.25 19.3333C20.0833 18.5833 18.75 18.4167 17.25 18.8333C16.5833 19 16 19.4167 15.5 19.8333C15 20.25 14.6667 20.4167 14.25 20.5L16.9167 16.3333C17.9167 15.6667 19 15.5833 20.0833 16C20.4167 16.1667 20.8333 16.4167 21.1667 16.6667C21.25 16.75 21.4167 16.8333 21.5 16.9167C22.25 17.4167 23.0833 17.6667 23.9167 17.75C24 17.75 24.1667 17.75 24.25 17.6667C24.25 17.6667 24.3333 17.5 24.3333 17.3333C24.3333 17.1667 24.3333 17 24.3333 16.8333V16.4167H24.1667C24 16.4167 23.8333 16.3333 23.75 16.25C23.4167 16.25 23.1667 16.1667 22.9167 16C22.4167 15.75 22 15.5 21.5833 15.1667C20.5 14.4167 19.3333 14.0833 18.0833 14.25L19.8333 11.5C20.1667 11.5833 20.5 11.75 20.75 12C21.1667 12.3333 21.6667 12.6667 22.25 12.9167C22.8333 13.1667 23.4167 13.3333 24.0833 13.25H24.3333V11.8333H24C24 11.8333 23.8333 11.8333 23.75 11.8333C23.1667 11.8333 22.75 11.6667 22.25 11.3333C22.0833 11.25 22 11.1667 21.8333 11.0833C21.5833 10.9167 21.4167 10.75 21.1667 10.5833C21 10.4167 20.75 10.3333 20.5833 10.25L22 8.00001L20.5833 7.08334L18.8333 9.83334C18.3333 9.83334 17.8333 9.83334 17.3333 10C16.5833 10.1667 16 10.5833 15.4167 11C15.4167 11 15.25 11.0833 15.1667 11.1667C14 12 12.5 12.0833 11.25 11.1667H11.0833C10.6667 10.75 10.25 10.5 9.83334 10.25C9.25001 9.91668 8.58334 9.75001 7.83334 9.83334H7.58334V11.25H7.83334C7.91668 11.25 8.08334 11.25 8.16668 11.25C8.41668 11.25 8.58334 11.25 8.75001 11.3333C9.33334 11.4167 9.75001 11.75 10.1667 12.1667H10.25C11.1667 12.9167 12.0833 13.25 13.1667 13.25C14.25 13.25 14.3333 13.1667 14.9167 12.9167C15.5833 12.6667 16.1667 12.25 16.5833 11.9167C16.9167 11.6667 17.4167 11.4167 17.8333 11.3333L15.1667 15.5C14 16.3333 12.3333 16.3333 11.1667 15.5C10.75 15.1667 10.3333 14.9167 9.75001 14.5833C9.16668 14.25 8.58334 14.1667 7.83334 14.25H7.58334V15.5833H7.75001C7.91668 15.5833 8.00001 15.6667 8.16668 15.6667C8.41668 15.6667 8.75001 15.75 8.91668 15.8333C9.41668 16.0833 9.83334 16.3333 10.25 16.6667L10.4167 16.8333C11.25 17.4167 12.1667 17.6667 13.0833 17.6667C14 17.6667 13.5833 17.6667 13.75 17.6667L12 20.4167C11.8333 20.4167 11.6667 20.25 11.5 20.1667C11.3333 20.0833 11.1667 19.9167 11.0833 19.8333C10.75 19.5833 10.5 19.4167 10.1667 19.25C9.50001 18.8333 8.66668 18.5833 7.83334 18.6667H7.58334V20.0833H7.83334C7.83334 20.0833 8.00001 20.0833 8.08334 20.0833C8.25001 20.0833 8.41668 20.0833 8.50001 20.0833C9.16668 20.1667 9.66668 20.5833 10.25 21C10.5833 21.25 10.9167 21.5 11.25 21.5833L9.75001 23.9167L11.1667 24.8333L12.9167 22.0833H13.0833C13.5833 22.0833 14.0833 22 14.6667 21.8333C15.25 21.6667 15.75 21.25 16.25 20.9167C16.3333 20.9167 16.4167 20.75 16.5 20.75C17.75 19.9167 19.1667 19.9167 20.4167 20.75C20.8333 21 21.3333 21.3333 21.8333 21.6667C22.4167 22 23.0833 22.1667 23.8333 22.0833H24.0833V20.5833H23.8333C23.0833 20.5833 22.4167 20.4167 21.5833 19.75H21.8333Z" fill="#D86800"/>
</svg>
