<svg width="101" height="101" viewBox="0 0 101 101" fill="none" xmlns="http://www.w3.org/2000/svg"> <g clip-path="url(#clip0_5191_87462)"> <path d="M25.7255 96.9206C25.6151 96.9257 25.5059 96.8967 25.4126 96.8374C25.3192 96.7782 25.2463 96.6916 25.2037 96.5895C25.1611 96.4873 25.1509 96.3745 25.1743 96.2663C25.1978 96.1581 25.2539 96.0597 25.3351 95.9845C25.3486 95.9304 25.3584 95.8915 25.372 95.8374C25.2664 95.5685 25.0831 95.3373 24.8456 95.1735C24.608 95.0096 24.3271 94.9207 24.0389 94.9179C23.7506 94.9152 23.4681 94.9989 23.2275 95.1582C22.987 95.3174 22.7994 95.5451 22.6887 95.812C22.0503 97.3103 21.2239 98.8613 21.6349 100.512C18.9205 94.744 19.8436 87.5697 23.8551 82.6374C24.964 82.0251 25.8627 80.9371 26.0967 79.6738C25.5479 79.8602 24.8637 79.4127 25.2763 78.8332C25.4551 78.6117 25.6357 78.3919 25.8146 78.1704C23.7299 75.9447 21.2462 79.4427 23.5407 82.4468C22.7901 83.3903 22.1399 84.4098 21.6008 85.4889C21.7253 84.3431 21.5767 83.1841 21.1672 82.1071C20.7522 81.1034 19.9744 80.2581 19.2894 79.3904C18.4565 78.3332 16.7424 78.8209 16.6303 80.1626C17.3989 80.4159 17.4988 81.5289 16.6196 81.6813C16.8499 84.1772 18.4763 86.4709 20.7165 87.5656C19.8892 89.8926 19.5662 92.3697 19.7689 94.8317C19.3735 91.9543 16.2926 91.2561 14.1393 90.1124C14.0022 90.0243 13.8426 89.9781 13.6797 89.9794C13.5169 89.9807 13.358 90.0295 13.2224 90.1198C13.0868 90.2101 12.9803 90.338 12.9159 90.488C12.8516 90.6379 12.8322 90.8034 12.86 90.9642C13.1572 91.0854 13.4417 91.2358 13.7092 91.4134C13.8346 91.4979 13.9308 91.6192 13.9847 91.7607C14.0386 91.9021 14.0476 92.0569 14.0103 92.2036C13.9731 92.3504 13.8914 92.482 13.7766 92.5805C13.6618 92.6789 13.5195 92.7393 13.3691 92.7535C14.4545 95.4467 17.2608 97.2552 20.143 97.245C20.42 98.4517 20.8213 99.6263 21.3405 100.75H25.6183C25.6336 100.702 25.6474 100.653 25.6612 100.605C25.2653 100.63 24.8677 100.606 24.4775 100.535C25.5251 99.2911 26.3353 98.6567 25.7256 96.9207L25.7255 96.9206Z" fill="#F2F2F2"/> <path d="M63.8624 96.9206C63.9727 96.9257 64.082 96.8967 64.1753 96.8374C64.2686 96.7782 64.3415 96.6916 64.3842 96.5895C64.4268 96.4873 64.437 96.3745 64.4135 96.2663C64.39 96.1581 64.3339 96.0597 64.2528 95.9845C64.2392 95.9304 64.2295 95.8915 64.2159 95.8374C64.3215 95.5685 64.5048 95.3373 64.7423 95.1735C64.9798 95.0096 65.2607 94.9207 65.549 94.9179C65.8373 94.9152 66.1198 94.9989 66.3604 95.1582C66.6009 95.3174 66.7885 95.5451 66.8992 95.812C67.5376 97.3103 68.3639 98.8613 67.953 100.512C70.6674 94.744 69.7443 87.5697 65.7328 82.6374C64.6239 82.0251 63.7252 80.9371 63.4912 79.6738C64.04 79.8602 64.7242 79.4127 64.3116 78.8332C64.1327 78.6117 63.9522 78.3919 63.7733 78.1704C65.8579 75.9447 68.3417 79.4427 66.0472 82.4468C66.7978 83.3903 67.4479 84.4098 67.9871 85.4889C67.8626 84.3431 68.0112 83.1841 68.4206 82.1071C68.8356 81.1034 69.6135 80.2581 70.2985 79.3904C71.1314 78.3332 72.8455 78.8209 72.9576 80.1626C72.1889 80.4159 72.0891 81.5289 72.9683 81.6813C72.738 84.1772 71.1115 86.4709 68.8714 87.5656C69.6987 89.8926 70.0217 92.3697 69.819 94.8317C70.2144 91.9543 73.2952 91.2561 75.4486 90.1124C75.5857 90.0243 75.7453 89.9781 75.9081 89.9794C76.0709 89.9807 76.2299 90.0295 76.3655 90.1198C76.5011 90.2101 76.6076 90.338 76.6719 90.488C76.7363 90.6379 76.7557 90.8034 76.7279 90.9642C76.4306 91.0854 76.1462 91.2358 75.8786 91.4134C75.7533 91.4979 75.657 91.6192 75.6031 91.7607C75.5492 91.9021 75.5403 92.0569 75.5776 92.2036C75.6148 92.3504 75.6965 92.482 75.8113 92.5805C75.9261 92.6789 76.0684 92.7393 76.2188 92.7535C75.1334 95.4467 72.3271 97.2552 69.4449 97.245C69.1679 98.4517 68.7666 99.6263 68.2474 100.75H63.9696C63.9542 100.702 63.9405 100.653 63.9266 100.605C64.3226 100.63 64.7201 100.606 65.1103 100.535C64.0627 99.2911 63.2527 98.6566 63.8624 96.9206Z" fill="#F2F2F2"/> <path d="M65.449 97.5574L63.6068 97.9775L61.1133 91.0535L63.8323 90.4333L65.449 97.5574Z" fill="#A0616A"/> <path d="M65.9517 99.4693L60.2865 100.762L60.2702 100.69C60.1372 100.103 60.2419 99.4882 60.5613 98.9793C60.8807 98.4704 61.3887 98.1095 61.9735 97.9761L62.8298 96.9529L64.9392 97.2996L65.4337 97.1868L65.9517 99.4693Z" fill="#2F2E41"/> <path d="M95.1676 63.8076L96.1802 65.4065L90.5105 70.0842L89.0156 67.7241L95.1676 63.8076Z" fill="#A0616A"/> <path d="M96.7953 62.6919L99.9099 67.6089L99.8479 67.6484C99.3416 67.9707 98.7284 68.0782 98.143 67.9473C97.5577 67.8163 97.0482 67.4576 96.7266 66.9501L95.4779 66.4846L95.0961 64.376L94.8242 63.9468L96.7953 62.6919Z" fill="#2F2E41"/> <path d="M36.4433 46.7125L35.9883 44.0684L42.9059 40.9368L44.3998 38.2851C44.3516 38.0524 44.3684 37.8108 44.4485 37.5872C44.5286 37.3635 44.6688 37.1663 44.8536 37.0175C45.0384 36.8687 45.2607 36.7739 45.4958 36.7438C45.731 36.7137 45.9699 36.7493 46.1861 36.8467C46.4023 36.9441 46.5875 37.0996 46.7211 37.2959C46.8548 37.4922 46.9317 37.7217 46.9434 37.9591C46.9551 38.1964 46.9011 38.4324 46.7874 38.641C46.6737 38.8495 46.5047 39.0225 46.2992 39.1408L43.8416 42.9499L36.4433 46.7125Z" fill="#A0616A"/> <path d="M34.3398 44.5512L37.455 42.9558L38.2797 46.0601L36.1159 47.6681L34.3398 44.5512Z" fill="#5B7AC6"/> <path d="M27.3501 97.3171L29.2336 97.3169L30.1296 90.0332L27.3496 90.0334L27.3501 97.3171Z" fill="#A0616A"/> <path d="M29.86 97.487V96.2068L29.3648 96.2371L27.3491 96.3568L26.8826 96.3856L26.5259 100.673L26.5068 100.903H27.8443L27.8873 100.675L28.0815 99.6371L28.5831 100.675L28.6929 100.903H32.2388C32.4498 100.902 32.6517 100.817 32.8008 100.667C32.9498 100.517 33.0339 100.315 33.0349 100.103C33.1845 99.4025 30.2358 97.8876 29.86 97.487Z" fill="#2F2E41"/> <path d="M4.99084 68.4109L4.55176 70.2473L11.4079 72.8192L12.0559 70.1089L4.99084 68.4109Z" fill="#A0616A"/> <path d="M4.38992 70.8187L5.63167 71.1172L5.71771 70.6273L6.07157 68.6343L6.15247 68.1728L2.07686 66.8254L1.85835 66.7532L1.54651 68.0571L1.75789 68.1522L2.71901 68.5835L1.59566 68.8305L1.34864 68.8844L0.521895 72.3413C0.473997 72.5473 0.509096 72.7639 0.619579 72.9442C0.730062 73.1244 0.907003 73.2536 1.11198 73.3039C1.75679 73.6132 3.91368 71.0916 4.38992 70.8187Z" fill="#2F2E41"/> <path d="M30.2619 50.177L27.8374 49.0408L23.0025 54.9067L20.0575 55.6534C19.8463 55.5455 19.6095 55.4982 19.3731 55.5167C19.1368 55.5353 18.9102 55.619 18.7183 55.7586C18.5264 55.8981 18.3767 56.0882 18.2858 56.3076C18.1949 56.5271 18.1663 56.7676 18.2031 57.0023C18.2399 57.2371 18.3408 57.4571 18.4945 57.6381C18.6482 57.819 18.8488 57.9538 19.0741 58.0276C19.2994 58.1014 19.5407 58.1114 19.7714 58.0563C20.002 58.0013 20.2129 57.8834 20.3809 57.7157L24.6933 56.3418L30.2619 50.177Z" fill="#A0616A"/> <path d="M64.6345 28.4622C64.1206 28.4622 63.6182 28.3094 63.1909 28.0232C62.7636 27.7369 62.4306 27.3301 62.2339 26.8541C62.0373 26.3781 61.9858 25.8543 62.0861 25.349C62.1863 24.8437 62.4338 24.3795 62.7972 24.0152C63.1606 23.6509 63.6236 23.4028 64.1276 23.3023C64.6316 23.2017 65.1541 23.2533 65.6289 23.4505C66.1037 23.6477 66.5095 23.9815 66.795 24.4099C67.0805 24.8383 67.2329 25.342 67.2329 25.8572C67.2321 26.5478 66.9581 27.21 66.471 27.6984C65.9839 28.1867 65.3234 28.4614 64.6345 28.4622ZM64.6345 23.5512C64.1796 23.5512 63.7349 23.6864 63.3566 23.9398C62.9783 24.1932 62.6835 24.5533 62.5094 24.9747C62.3353 25.3961 62.2898 25.8598 62.3785 26.3071C62.4673 26.7544 62.6863 27.1653 63.008 27.4878C63.3297 27.8103 63.7396 28.03 64.1858 28.1189C64.632 28.2079 65.0945 28.1623 65.5148 27.9877C65.9351 27.8132 66.2943 27.5176 66.5471 27.1384C66.7998 26.7591 66.9347 26.3133 66.9347 25.8572C66.934 25.2458 66.6915 24.6597 66.2602 24.2273C65.829 23.795 65.2444 23.5518 64.6345 23.5512Z" fill="#E6E6E6"/> <path d="M64.4517 26.8383C64.4464 26.8383 64.4412 26.8382 64.436 26.8379C64.3899 26.8357 64.3447 26.8235 64.3038 26.8021C64.2628 26.7808 64.2269 26.7508 64.1986 26.7142L63.7892 26.1867C63.7634 26.1534 63.7443 26.1153 63.7332 26.0746C63.722 26.0339 63.7189 25.9914 63.7241 25.9496C63.7294 25.9077 63.7428 25.8673 63.7636 25.8306C63.7844 25.7939 63.8122 25.7617 63.8454 25.7358L63.8601 25.7243C63.8933 25.6984 63.9313 25.6793 63.9719 25.6681C64.0125 25.6569 64.0549 25.6538 64.0967 25.659C64.1385 25.6643 64.1788 25.6777 64.2154 25.6986C64.252 25.7194 64.2841 25.7473 64.3099 25.7807C64.3306 25.8073 64.3568 25.8291 64.3867 25.8446C64.4165 25.8602 64.4494 25.8691 64.483 25.8707C64.5166 25.8724 64.5501 25.8667 64.5814 25.8541C64.6126 25.8416 64.6408 25.8224 64.6639 25.7979L65.495 24.9183C65.5535 24.8565 65.634 24.8205 65.719 24.8182C65.8039 24.8159 65.8863 24.8475 65.9481 24.906L65.9617 24.919C65.9923 24.948 66.0168 24.9828 66.034 25.0213C66.0511 25.0598 66.0605 25.1014 66.0617 25.1436C66.0628 25.1857 66.0556 25.2277 66.0406 25.2671C66.0255 25.3065 66.0029 25.3426 65.9739 25.3732L64.6842 26.738C64.6543 26.7697 64.6182 26.7949 64.5782 26.8122C64.5383 26.8295 64.4952 26.8384 64.4517 26.8383Z" fill="#E6E6E6"/> <path d="M51.6628 60.0013C51.1489 60.0013 50.6466 59.8485 50.2193 59.5622C49.792 59.276 49.4589 58.8691 49.2622 58.3931C49.0656 57.9171 49.0141 57.3934 49.1144 56.8881C49.2146 56.3827 49.4621 55.9186 49.8255 55.5542C50.1889 55.1899 50.6519 54.9418 51.1559 54.8413C51.66 54.7408 52.1824 54.7924 52.6572 54.9896C53.132 55.1867 53.5378 55.5206 53.8233 55.949C54.1088 56.3774 54.2612 56.881 54.2612 57.3963C54.2605 58.0869 53.9865 58.7491 53.4993 59.2374C53.0122 59.7258 52.3517 60.0005 51.6628 60.0013ZM51.6628 55.0902C51.2079 55.0902 50.7632 55.2255 50.3849 55.4789C50.0067 55.7322 49.7118 56.0924 49.5377 56.5138C49.3636 56.9351 49.3181 57.3988 49.4068 57.8461C49.4956 58.2935 49.7147 58.7044 50.0364 59.0269C50.358 59.3494 50.7679 59.569 51.2141 59.658C51.6603 59.747 52.1228 59.7013 52.5431 59.5268C52.9634 59.3522 53.3226 59.0567 53.5754 58.6774C53.8281 58.2982 53.963 57.8524 53.963 57.3963C53.9623 56.7849 53.7198 56.1987 53.2886 55.7664C52.8573 55.3341 52.2727 55.0909 51.6628 55.0902Z" fill="#E6E6E6"/> <path d="M51.48 58.3777C51.4748 58.3777 51.4695 58.3775 51.4643 58.3772C51.4182 58.375 51.3731 58.3628 51.3321 58.3414C51.2911 58.3201 51.2552 58.2901 51.2269 58.2535L50.8176 57.726C50.7917 57.6927 50.7727 57.6546 50.7615 57.6139C50.7503 57.5732 50.7473 57.5307 50.7525 57.4889C50.7577 57.447 50.7711 57.4066 50.7919 57.3699C50.8127 57.3332 50.8405 57.301 50.8737 57.2751L50.8885 57.2636C50.9217 57.2377 50.9597 57.2186 51.0002 57.2074C51.0408 57.1962 51.0832 57.1931 51.125 57.1983C51.1668 57.2036 51.2071 57.217 51.2437 57.2379C51.2803 57.2587 51.3124 57.2866 51.3383 57.32C51.3589 57.3466 51.3851 57.3684 51.415 57.3839C51.4448 57.3995 51.4777 57.4084 51.5113 57.41C51.5449 57.4117 51.5785 57.406 51.6097 57.3934C51.6409 57.3809 51.6691 57.3617 51.6922 57.3372L52.5233 56.4576C52.5818 56.3958 52.6624 56.3599 52.7473 56.3575C52.8322 56.3552 52.9146 56.3868 52.9764 56.4453L52.99 56.4583C53.0206 56.4873 53.0451 56.5221 53.0623 56.5606C53.0794 56.5991 53.0889 56.6407 53.09 56.6829C53.0911 56.725 53.084 56.767 53.0689 56.8064C53.0538 56.8458 53.0312 56.8819 53.0022 56.9125L51.7125 58.2773C51.6826 58.309 51.6465 58.3342 51.6066 58.3515C51.5666 58.3688 51.5235 58.3777 51.48 58.3777Z" fill="#E6E6E6"/> <path d="M23.1863 24.8748C22.6724 24.8748 22.17 24.722 21.7427 24.4358C21.3154 24.1495 20.9824 23.7427 20.7857 23.2667C20.589 22.7907 20.5376 22.2669 20.6378 21.7616C20.7381 21.2563 20.9855 20.7921 21.3489 20.4278C21.7123 20.0635 22.1753 19.8154 22.6794 19.7149C23.1834 19.6143 23.7058 19.6659 24.1806 19.8631C24.6554 20.0603 25.0613 20.3941 25.3468 20.8225C25.6323 21.2509 25.7847 21.7546 25.7847 22.2698C25.7839 22.9604 25.5099 23.6226 25.0228 24.111C24.5356 24.5993 23.8752 24.874 23.1863 24.8748ZM23.1863 19.9637C22.7313 19.9637 22.2866 20.099 21.9084 20.3524C21.5301 20.6058 21.2353 20.9659 21.0612 21.3873C20.8871 21.8087 20.8415 22.2724 20.9303 22.7197C21.019 23.167 21.2381 23.5779 21.5598 23.9004C21.8815 24.2229 22.2913 24.4426 22.7375 24.5315C23.1837 24.6205 23.6462 24.5748 24.0665 24.4003C24.4868 24.2258 24.8461 23.9302 25.0988 23.551C25.3516 23.1717 25.4865 22.7259 25.4865 22.2698C25.4858 21.6584 25.2432 21.0723 24.812 20.6399C24.3808 20.2076 23.7961 19.9644 23.1863 19.9637Z" fill="#E6E6E6"/> <path d="M23.0024 23.2512C22.9972 23.2512 22.992 23.251 22.9868 23.2508C22.9406 23.2485 22.8955 23.2363 22.8545 23.215C22.8136 23.1936 22.7777 23.1636 22.7493 23.1271L22.34 22.5995C22.3142 22.5662 22.2951 22.5281 22.2839 22.4875C22.2728 22.4468 22.2697 22.4043 22.2749 22.3624C22.2801 22.3205 22.2935 22.2801 22.3143 22.2434C22.3351 22.2067 22.363 22.1745 22.3962 22.1486L22.4109 22.1371C22.4441 22.1112 22.4821 22.0921 22.5227 22.0809C22.5633 22.0697 22.6057 22.0666 22.6475 22.0719C22.6892 22.0771 22.7296 22.0905 22.7662 22.1114C22.8028 22.1323 22.8349 22.1602 22.8607 22.1935C22.8814 22.2201 22.9076 22.2419 22.9374 22.2575C22.9673 22.273 23.0001 22.2819 23.0338 22.2836C23.0674 22.2852 23.1009 22.2795 23.1322 22.267C23.1634 22.2544 23.1915 22.2352 23.2147 22.2108L24.0458 21.3312C24.1043 21.2694 24.1848 21.2334 24.2698 21.2311C24.3547 21.2288 24.4371 21.2603 24.4989 21.3188L24.5125 21.3318C24.543 21.3608 24.5676 21.3956 24.5848 21.4341C24.6019 21.4727 24.6113 21.5142 24.6125 21.5564C24.6136 21.5986 24.6064 21.6406 24.5914 21.68C24.5763 21.7194 24.5537 21.7554 24.5247 21.786L23.235 23.1508C23.2051 23.1825 23.169 23.2078 23.129 23.225C23.089 23.2423 23.046 23.2512 23.0024 23.2512Z" fill="#E6E6E6"/> <path d="M43.9888 69.6869C37.9635 69.6869 31.0389 62.9835 24.9123 66.1685C6.36262 75.8116 8.91608 59.6753 3.58691 53.6741L3.76187 53.3223C9.642 58.6081 16.9835 62.9088 24.9928 65.7592C32.2307 68.3354 39.5229 69.529 46.0784 69.214L46.0897 69.6369C45.3974 69.6703 44.6971 69.687 43.9888 69.6869Z" fill="#F2F2F2"/> <path d="M35.7233 24.3648C36.4189 24.3648 36.9828 23.6068 36.9828 22.6717C36.9828 21.7366 36.4189 20.9785 35.7233 20.9785C35.0277 20.9785 34.4639 21.7366 34.4639 22.6717C34.4639 23.6068 35.0277 24.3648 35.7233 24.3648Z" fill="#E6E6E6"/> <path d="M50.2703 50.7785C49.6945 51.1631 49.1052 50.2477 49.6921 49.8801C50.2679 49.4955 50.8572 50.411 50.2703 50.7785Z" fill="#E6E6E6"/> <path d="M46.9565 19.9593C47.8622 19.9593 48.5965 19.2232 48.5965 18.3151C48.5965 17.407 47.8622 16.6709 46.9565 16.6709C46.0507 16.6709 45.3164 17.407 45.3164 18.3151C45.3164 19.2232 46.0507 19.9593 46.9565 19.9593Z" fill="#FF6584"/> <path opacity="0.3" d="M52.6922 27.3252L62.0246 0L51.7771 26.9981C51.7264 27.0622 51.6917 27.1375 51.6758 27.2177C51.6599 27.2979 51.6634 27.3808 51.6859 27.4594C51.7083 27.538 51.7491 27.6102 51.805 27.6698C51.8608 27.7294 51.93 27.7749 52.0068 27.8023C52.0837 27.8298 52.1659 27.8385 52.2468 27.8277C52.3276 27.8169 52.4048 27.787 52.4718 27.7403C52.5388 27.6937 52.5937 27.6317 52.6321 27.5595C52.6704 27.4873 52.691 27.407 52.6922 27.3252Z" fill="#F0F0F0"/> <path d="M43.2724 60.6155C44.1537 60.6155 44.8681 59.8992 44.8681 59.0157C44.8681 58.1322 44.1537 57.416 43.2724 57.416C42.3912 57.416 41.6768 58.1322 41.6768 59.0157C41.6768 59.8992 42.3912 60.6155 43.2724 60.6155Z" fill="#F2F2F2"/> <path d="M27.8178 59.6257C27.8178 59.6257 23.8399 62.2226 24.8917 63.9482C24.928 64.0077 20.1401 70.3474 20.1401 70.3474L11.1016 69.7721L10.7832 72.805L18.8299 75.1414C18.8299 75.1414 20.7984 76.5913 22.3191 74.9938C23.8399 73.3963 28.9053 68.5043 28.9053 68.5043L29.1496 78.3811L26.6068 92.0674L30.4035 91.8261L34.0989 78.0953L35.4629 62.5419L27.8178 59.6257Z" fill="#2F2E41"/> <path d="M30.6519 44.0402L28.9791 45.3112L27.0724 49.3909L28.9059 51.8872C28.9059 51.8872 30.4481 54.5668 27.9795 57.1618C25.511 59.7568 23.6154 62.5283 25.5912 62.4294C27.5671 62.3304 35.5694 66.4109 35.6221 63.0679C35.6747 59.7248 35.7813 57.1618 35.7813 57.1618L37.8793 51.8269C37.8793 51.8269 39.1293 48.6443 38.2517 47.6917C37.3741 46.739 36.1991 45.5217 36.1991 45.5217L34.0623 43.3794H32.1328L30.6519 44.0402Z" fill="#5B7AC6"/> <path d="M33.7746 36.2018C37.5274 38.3427 34.4466 43.9915 30.6238 41.98C26.8711 39.8392 29.952 34.1904 33.7746 36.2018Z" fill="#A0616A"/> <path d="M35.7805 37.3889C35.5176 37.7317 34.9682 37.571 33.8924 37.8156C33.8947 37.45 33.8526 37.0855 33.7669 36.7301C33.6869 37.1701 33.5114 37.5872 33.253 37.9518C32.3188 38.0556 33.464 40.9008 32.9857 42.9927C32.3694 38.5795 31.0732 39.7357 31.728 40.6111C32.1473 41.1715 31.8678 42.8526 30.6101 42.0121C28.535 43.0008 25.5794 38.0893 28.8551 35.786C28.7966 34.5409 30.1784 34.3442 31.0293 34.727C33.0944 33.1848 35.4537 35.1609 35.7805 37.3889Z" fill="#2F2E41"/> <path d="M26.1522 34.1686C25.3167 39.3186 20.8384 33.2214 18.7328 38.2896C18.0707 40.125 19.2066 41.438 19.9252 42.9614C20.0891 44.2134 18.4645 44.8487 18.2943 46.0011C18.247 48.6433 22.4988 48.4816 23.6874 46.8146C24.9088 45.0696 23.4503 42.7284 24.1844 40.8553C25.2162 38.2549 29.4123 38.2355 29.7778 35.2101C29.0699 34.1994 27.1662 33.0418 26.1522 34.1686Z" fill="#2F2E41"/> <path d="M29.5365 34.6716C29.5092 34.6832 29.4818 34.6947 29.4574 34.7077H29.4559C29.4329 34.7192 29.4099 34.7308 29.3869 34.7437C29.384 34.7452 29.3826 34.7466 29.3797 34.7481C29.3495 34.7192 29.3193 34.6904 29.2876 34.6615C29.2794 34.7085 29.2814 34.7567 29.2934 34.8029L29.2977 34.8202C29.3265 34.8505 29.3567 34.8793 29.3883 34.9096C29.4171 34.888 29.4444 34.8649 29.4732 34.8433C29.4905 34.8288 29.5077 34.8144 29.5264 34.8C29.5293 34.7625 29.5336 34.7192 29.5379 34.6716L29.5365 34.6716ZM30.4025 33.0679C29.7609 32.9207 29.5537 33.7616 29.4919 34.1668C29.2588 32.6957 28.2892 33.1587 28.6244 34.1625C28.7313 34.4597 28.8994 34.731 29.1179 34.9586C29.1481 34.9932 29.1812 35.0279 29.2157 35.0625C29.1768 35.2644 29.3725 35.2125 29.6372 35.0264C29.8326 34.8871 30.0134 34.7281 30.1767 34.5519C30.7046 33.9967 31.1161 33.2539 30.4025 33.0679ZM30.4227 33.8957C30.2247 34.1516 30.0026 34.3878 29.7595 34.601C29.6832 34.6702 29.6055 34.7365 29.5264 34.8C29.525 34.813 29.525 34.8245 29.5235 34.8346C29.518 34.8486 29.5112 34.8621 29.5034 34.875C29.4228 35.0207 29.3322 34.9413 29.2977 34.8202C29.2948 34.8159 29.2905 34.8115 29.2876 34.8072C29.1726 34.6881 29.0726 34.5554 28.9898 34.412C28.3957 33.3794 29.3524 32.677 29.3049 34.6053C29.2961 34.623 29.2903 34.642 29.2876 34.6615C29.2794 34.7085 29.2814 34.7567 29.2934 34.8029L29.2977 34.8202C29.3265 34.8505 29.3567 34.8793 29.3883 34.9096C29.4171 34.888 29.4444 34.8649 29.4732 34.8433C29.4905 34.8288 29.5077 34.8144 29.5264 34.8C29.5293 34.7625 29.5336 34.7192 29.5379 34.6716V34.6702C29.5753 34.2837 29.6775 33.5885 29.8659 33.3996C30.2802 33.0808 30.8168 33.4255 30.4227 33.8957ZM29.5365 34.6716C29.5092 34.6832 29.4818 34.6947 29.4574 34.7077H29.4559C29.4329 34.7192 29.4099 34.7308 29.3869 34.7437C29.384 34.7452 29.3826 34.7466 29.3797 34.7481C29.3495 34.7192 29.3193 34.6904 29.2876 34.6615C29.2794 34.7085 29.2814 34.7567 29.2934 34.8029L29.2977 34.8202C29.3265 34.8505 29.3567 34.8793 29.3883 34.9096C29.4171 34.888 29.4444 34.8649 29.4732 34.8433C29.4905 34.8288 29.5077 34.8144 29.5264 34.8C29.5293 34.7625 29.5336 34.7192 29.5379 34.6716L29.5365 34.6716Z" fill="#2F2E41"/> <path d="M64.2228 63.0659L62.8368 66.6896L56.335 79.5474L62.0481 94.5049L64.9966 93.7246L62.5663 79.5474L69.5386 71.0543L77.8187 76.6845C77.8187 76.6845 81.4909 79.5586 82.888 76.834C84.285 74.1093 93.3246 68.3139 93.3246 68.3139L91.0882 65.9223L80.6786 70.8062L73.4938 60.6677L64.2228 63.0659Z" fill="#2F2E41"/> <path d="M71.2164 45.9729L68.9348 43.5154L65.0211 42.9756L60.2256 46.3413L60.2739 50.0666L62.6445 58.8451C62.6445 58.8451 61.7415 65.1521 64.2636 65.0888C66.7858 65.0256 68.1605 63.7649 69.1877 64.0216C70.215 64.2782 74.5816 65.3703 74.8584 64.2263C75.1351 63.0824 76.6061 63.9015 76.5415 62.8193C76.4769 61.7371 72.5593 53.9365 72.5593 53.9365L73.5334 46.1352L71.2164 45.9729Z" fill="#5B7AC6"/> <path d="M85.6624 34.6605C85.6828 34.8643 85.6584 35.0701 85.5909 35.2635C85.5234 35.4568 85.4144 35.6329 85.2717 35.7795C85.1289 35.926 84.9559 36.0394 84.7647 36.1116C84.5735 36.1838 84.3688 36.2132 84.1651 36.1975L78.9184 46.2013L77.5098 44.0334L82.8726 34.592C82.9215 34.2506 83.0936 33.9391 83.3563 33.7165C83.619 33.4938 83.954 33.3755 84.2979 33.384C84.6418 33.3924 84.9706 33.527 85.2221 33.7623C85.4736 33.9976 85.6302 34.3172 85.6624 34.6605Z" fill="#A0616A"/> <path d="M69.1449 47.8329C69.1449 47.8329 68.9368 49.6123 70.9349 50.0529C72.9331 50.4934 78.4691 47.3221 79.3766 46.8378C79.6608 46.6861 80.0465 45.9426 80.4421 44.9929C80.6198 44.5665 80.7994 44.0986 80.9728 43.6239C81.0732 43.3492 81.5537 43.2743 81.6483 43.0019C81.7423 42.731 81.4505 42.2626 81.5356 42.0073C81.9399 40.7954 82.2263 39.8339 82.2263 39.8339L80.9019 37.3398C79.0497 38.3216 78.0997 40.484 77.401 42.9752L69.1449 47.8329Z" fill="#5B7AC6"/> <path d="M45.8088 36.9578C45.8399 37.1603 45.9149 37.3534 46.0285 37.5236C46.1422 37.6939 46.2916 37.8371 46.4664 37.9431C46.6412 38.0492 46.837 38.1155 47.0402 38.1375C47.2433 38.1595 47.4488 38.1365 47.6421 38.0703L55.2191 46.4394L56.0417 43.987L48.4927 36.1915C48.3602 35.8733 48.1158 35.6149 47.8059 35.4652C47.496 35.3156 47.1421 35.2851 46.8113 35.3796C46.4804 35.474 46.1957 35.6869 46.0109 35.9777C45.8262 36.2686 45.7542 36.6174 45.8088 36.9578Z" fill="#A0616A"/> <path d="M65.0886 45.5668C65.0886 45.5668 65.7343 47.2374 63.9097 48.1653C62.085 49.0931 55.9336 47.4117 54.934 47.1704C54.621 47.0949 54.0621 46.4718 53.4419 45.6516C53.1635 45.2834 52.8728 44.8754 52.5864 44.4593C52.4207 44.2186 51.9367 44.2665 51.7771 44.0265C51.6185 43.7879 51.7841 43.2611 51.6379 43.0353C50.9441 41.9634 50.4268 41.1044 50.4268 41.1044L51.0864 38.3574C53.1248 38.8432 54.5843 40.6984 55.8827 42.9351L65.0886 45.5668Z" fill="#5B7AC6"/> <path d="M67.0558 42.3504C69.1124 42.3504 70.7797 40.6789 70.7797 38.6171C70.7797 36.5552 69.1124 34.8838 67.0558 34.8838C64.9992 34.8838 63.332 36.5552 63.332 38.6171C63.332 40.6789 64.9992 42.3504 67.0558 42.3504Z" fill="#A0616A"/> <path d="M71.3071 36.4795C70.9154 35.8719 70.1804 35.467 69.4678 35.5808C69.4014 35.1249 69.2116 34.6959 68.919 34.3407C68.6263 33.9854 68.2421 33.7175 67.808 33.566C67.374 33.4145 66.9068 33.3853 66.4574 33.4816C66.008 33.5779 65.5935 33.7959 65.2591 34.112C65.1492 34.0344 65.0211 33.9865 64.8872 33.9731C64.7534 33.9597 64.6184 33.9811 64.4953 34.0354C64.25 34.1472 64.0367 34.3189 63.8747 34.5347C63.4658 35.046 63.2029 35.6588 63.1138 36.3079C63.0247 36.9571 63.1129 37.6183 63.369 38.2212C63.2819 37.9038 63.5991 37.6052 63.9197 37.534C64.2403 37.4628 64.5766 37.5302 64.9016 37.4838C65.3183 37.4244 65.6928 37.182 66.1101 37.1275C66.464 37.1044 66.819 37.1502 67.1556 37.2622C67.4921 37.3742 67.8465 37.4219 68.2006 37.4029C68.5518 37.3611 69.0042 38.6955 68.9982 39.6354C68.997 39.8135 69.0336 40.0422 69.2072 40.08C69.4211 40.1265 69.545 39.8307 69.7485 39.7501C69.8423 39.7231 69.9428 39.7337 70.029 39.7796C70.1151 39.8256 70.1802 39.9032 70.2103 39.9963C70.236 40.0908 70.2387 40.1902 70.2183 40.2861C70.1979 40.3819 70.155 40.4715 70.0931 40.5474C69.968 40.6978 69.8195 40.8269 69.6533 40.9298L69.7371 40.9997C69.8167 41.084 69.923 41.1379 70.0379 41.1522C70.1528 41.1665 70.269 41.1403 70.3667 41.0781C70.5589 40.9477 70.7145 40.77 70.8188 40.5621C71.2116 39.9531 71.4924 39.2785 71.6479 38.5703C71.7791 37.859 71.6988 37.087 71.3071 36.4795Z" fill="#2F2E41"/> <path d="M98.8554 51.2038C94.0522 54.8509 84.4952 53.6987 81.5293 59.9461C72.5496 78.8613 64.8674 64.4525 57.005 62.8942L56.9326 62.5079C64.8034 63.1623 73.2458 62.1469 81.3471 59.5711C88.6683 57.2436 95.2002 53.7811 100.236 49.562L100.5 49.8922C99.9683 50.338 99.4201 50.7752 98.8554 51.2038Z" fill="#F2F2F2"/> <path d="M78.5476 100.745C78.4332 101.085 13.1185 101.085 12.9951 100.746C13.1094 100.405 78.424 100.405 78.5476 100.745Z" fill="#CCCCCC"/> </g> <defs> <clipPath id="clip0_5191_87462"> <rect width="100" height="101" fill="white" transform="translate(0.5)"/> </clipPath> </defs> </svg> 