<svg width="32" height="32" viewBox="0 0 32 32" fill="none" xmlns="http://www.w3.org/2000/svg">
<rect width="32" height="32" rx="16" fill="#DBFDF4"/>
<path fill-rule="evenodd" clip-rule="evenodd" d="M19.3333 10.375C19.5023 10.375 19.6642 10.4435 19.7819 10.5649L23.1153 14.0024C23.3556 14.2502 23.3495 14.6459 23.1017 14.8862C22.8539 15.1265 22.4582 15.1204 22.2179 14.8726L19.9583 12.5423L19.9583 21C19.9583 21.3452 19.6784 21.625 19.3333 21.625C18.9881 21.625 18.7083 21.3452 18.7083 21L18.7083 12.5423L16.4486 14.8726C16.2083 15.1204 15.8126 15.1265 15.5648 14.8862C15.317 14.6459 15.3109 14.2502 15.5512 14.0024L18.8846 10.5649C19.0023 10.4435 19.1642 10.375 19.3333 10.375ZM12.6666 10.375C13.0118 10.375 13.2916 10.6548 13.2916 11L13.2916 19.4577L15.5512 17.1274C15.7915 16.8796 16.1872 16.8735 16.435 17.1138C16.6828 17.3541 16.6889 17.7498 16.4486 17.9976L13.1153 21.4351C12.9976 21.5565 12.8357 21.625 12.6666 21.625C12.4975 21.625 12.3356 21.5565 12.2179 21.4351L8.88456 17.9976C8.64427 17.7498 8.65036 17.3541 8.89816 17.1138C9.14596 16.8735 9.54165 16.8796 9.78194 17.1274L12.0416 19.4577L12.0416 11C12.0416 10.6548 12.3214 10.375 12.6666 10.375Z" fill="#5BBAA3" stroke="#5BBAA3" stroke-width="0.3"/>
</svg>
