<svg width="29" height="28" viewBox="0 0 29 28" fill="none" xmlns="http://www.w3.org/2000/svg">
<rect x="0.5" width="28" height="28" rx="14" fill="#E2EAFF"/>
<g clip-path="url(#clip0_5022_86965)">
<path d="M11.5334 20.5C17.5697 20.5 20.8722 15.4978 20.8722 11.1612C20.8722 11.0206 20.8691 10.8769 20.8628 10.7362C21.5052 10.2716 22.0597 9.69617 22.5 9.03687C21.9017 9.30307 21.2664 9.47692 20.6159 9.55249C21.3009 9.14194 21.8137 8.49698 22.0594 7.73718C21.415 8.11904 20.7104 8.38841 19.9756 8.53374C19.4806 8.00771 18.826 7.65941 18.1131 7.5427C17.4003 7.42599 16.6688 7.54737 16.0318 7.88806C15.3949 8.22876 14.8879 8.7698 14.5892 9.42754C14.2906 10.0853 14.217 10.8231 14.3797 11.5269C13.075 11.4614 11.7986 11.1225 10.6333 10.5321C9.46802 9.94166 8.4398 9.11296 7.61531 8.09968C7.19627 8.82216 7.06804 9.6771 7.25669 10.4907C7.44534 11.3044 7.93671 12.0156 8.63094 12.48C8.10975 12.4634 7.59998 12.3231 7.14375 12.0706V12.1112C7.14328 12.8694 7.4054 13.6044 7.88554 14.1912C8.36568 14.778 9.03422 15.1804 9.7775 15.33C9.2947 15.4621 8.78799 15.4813 8.29656 15.3862C8.5063 16.0383 8.91438 16.6086 9.46385 17.0176C10.0133 17.4265 10.6767 17.6537 11.3616 17.6675C10.1989 18.5807 8.76278 19.0761 7.28438 19.0737C7.02219 19.0733 6.76027 19.0573 6.5 19.0256C8.0019 19.9892 9.74902 20.5009 11.5334 20.5Z" fill="#2B4483"/>
</g>
<defs>
<clipPath id="clip0_5022_86965">
<rect width="16" height="16" fill="white" transform="translate(6.5 6)"/>
</clipPath>
</defs>
</svg>
