<svg width="22" height="22" viewBox="0 0 22 22" fill="none" xmlns="http://www.w3.org/2000/svg">
<path fill-rule="evenodd" clip-rule="evenodd" d="M12.4618 3.04683C13.6652 3.86925 14.8624 4.85943 16.0015 5.99857C17.1407 7.13773 18.1309 8.33494 18.9533 9.53839C19.6544 8.16096 20.0758 6.85665 20.2064 5.72508C20.371 4.298 20.0678 3.24358 19.4122 2.58796C18.7566 1.93235 17.7022 1.62912 16.2751 1.79377C15.1435 1.92433 13.8392 2.34576 12.4618 3.04683ZM19.8687 11.0001C20.8741 9.23497 21.5142 7.47673 21.6965 5.89701C21.8915 4.20664 21.5677 2.62215 20.4729 1.5273C19.378 0.432462 17.7935 0.108624 16.1032 0.303658C14.5235 0.485924 12.7652 1.12603 11.0001 2.13142C9.23497 1.12609 7.47679 0.486026 5.89713 0.303785C4.2068 0.108777 2.62236 0.432625 1.52754 1.52744C0.432717 2.62227 0.108875 4.20674 0.303895 5.89709C0.486149 7.47678 1.12623 9.23499 2.13159 11.0001C1.12632 12.7652 0.486293 14.5233 0.304075 16.103C0.109092 17.7933 0.432947 19.3777 1.52774 20.4725C2.62254 21.5673 4.20694 21.8911 5.89723 21.6961C7.47686 21.5139 9.235 20.8739 11.0001 19.8686C12.7652 20.8739 14.5234 21.514 16.1031 21.6963C17.7934 21.8913 19.3778 21.5674 20.4727 20.4726C21.5675 19.3778 21.8913 17.7934 21.6963 16.103C21.5141 14.5234 20.874 12.7652 19.8687 11.0001ZM18.1195 11.0001C17.2825 9.67499 16.2143 8.33261 14.9409 7.05923C13.6675 5.78587 12.3252 4.71761 11.0001 3.88069C9.67508 4.71759 8.3328 5.7858 7.05951 7.05909C5.78609 8.33252 4.71778 9.67495 3.88085 11.0001C4.71776 12.3252 5.78599 13.6675 7.05932 14.9408C8.33267 16.2142 9.67501 17.2824 11.0001 18.1193C12.3252 17.2824 13.6677 16.2141 14.9411 14.9407C16.2144 13.6674 17.2826 12.3251 18.1195 11.0001ZM12.4618 18.9532C13.6653 18.1307 14.8625 17.1405 16.0017 16.0013C17.1408 14.8623 18.1309 13.6652 18.9533 12.4618C19.6543 13.8392 20.0757 15.1435 20.2062 16.275C20.3708 17.702 20.0676 18.7563 19.412 19.4119C18.7564 20.0675 17.702 20.3708 16.275 20.2061C15.1435 20.0756 13.8392 19.6542 12.4618 18.9532ZM9.53833 18.9532C8.33492 18.1308 7.13777 17.1406 5.99866 16.0015C4.85956 14.8624 3.86943 13.6653 3.04702 12.4619C2.34607 13.8392 1.92471 15.1434 1.79419 16.2749C1.62958 17.7019 1.93281 18.7562 2.5884 19.4118C3.24399 20.0674 4.29835 20.3706 5.72534 20.206C6.85681 20.0755 8.161 19.6541 9.53833 18.9532ZM3.04699 9.53837C3.86944 8.33488 4.85966 7.13763 5.99885 5.99843C7.13792 4.85936 8.33502 3.86924 9.53837 3.04685C8.16098 2.34583 6.85673 1.92444 5.72522 1.7939C4.29819 1.62927 3.2438 1.9325 2.58821 2.5881C1.9326 3.24371 1.62937 4.29811 1.79401 5.72517C1.92456 6.8567 2.34596 8.16097 3.04699 9.53837ZM11.0002 9.24995C10.0337 9.24995 9.2502 10.0335 9.2502 11C9.2502 11.9665 10.0337 12.75 11.0002 12.75C11.9667 12.75 12.7502 11.9665 12.7502 11C12.7502 10.0335 11.9667 9.24995 11.0002 9.24995ZM7.7502 11C7.7502 9.20503 9.20527 7.74995 11.0002 7.74995C12.7951 7.74995 14.2502 9.20503 14.2502 11C14.2502 12.7949 12.7951 14.25 11.0002 14.25C9.20527 14.25 7.7502 12.7949 7.7502 11Z" fill="#2B4483"/>
</svg>
