<svg width="16" height="16" viewBox="0 0 16 16" fill="none" xmlns="http://www.w3.org/2000/svg">
<path d="M5.52727 16L4.14545 13.5619L1.52727 12.9524L1.78182 10.1333L0 8L1.78182 5.86667L1.52727 3.04762L4.14545 2.4381L5.52727 0L8 1.10476L10.4727 0L11.8545 2.4381L14.4727 3.04762L14.2182 5.86667L16 8L14.2182 10.1333L14.4727 12.9524L11.8545 13.5619L10.4727 16L8 14.8952L5.52727 16Z" fill="#00AFFF"/>
<path d="M12 4L10.3378 5.68842C10.3378 5.68842 10.3373 5.68819 10.3373 5.68774L9.90499 6.12667C8.85648 5.06186 7.15678 5.06186 6.10849 6.12667C5.06021 7.19171 5.06021 8.9182 6.10849 9.983C6.612 10.4942 7.29465 10.7816 8.00652 10.7816C9.25759 10.78 10.3422 9.90211 10.6233 8.66395H7.40664L8.60595 7.44573H11.8436C11.8746 7.64718 11.89 7.85089 11.89 8.05461C11.89 10.2302 10.1479 11.9998 8.0063 11.9998C6.97653 12.0005 5.98892 11.5844 5.2621 10.8436L4.6968 11.4179H3L4.54733 9.84727C4.2678 9.29254 4.12235 8.678 4.12302 8.05484C4.12302 5.8799 5.86533 4.11013 8.00674 4.11013C8.62068 4.10877 9.22591 4.25606 9.7727 4.53954L10.3041 4H12.0002H12Z" fill="white"/>
</svg>
