<svg width="29" height="28" viewBox="0 0 29 28" fill="none" xmlns="http://www.w3.org/2000/svg">
<rect x="0.5" width="28" height="28" rx="14" fill="#E2EAFF"/>
<path fill-rule="evenodd" clip-rule="evenodd" d="M12.6376 8.12119C12.4695 8.17444 12.3035 8.23496 12.14 8.30266C11.3919 8.61257 10.7121 9.0668 10.1394 9.63943C9.5668 10.2121 9.11257 10.8919 8.80266 11.64C8.55672 12.2338 8.4055 12.8614 8.35356 13.4999H11.3405C11.3619 12.7693 11.4299 12.0493 11.543 11.367C11.6816 10.5303 11.8864 9.75935 12.1501 9.10018C12.294 8.7403 12.4567 8.41086 12.6376 8.12119ZM14.4999 6.83325C13.5588 6.83325 12.6269 7.01862 11.7574 7.37878C10.8879 7.73894 10.0978 8.26683 9.43232 8.93232C8.76683 9.59781 8.23894 10.3879 7.87878 11.2574C7.51862 12.1269 7.33325 13.0588 7.33325 13.9999C7.33325 14.9411 7.51862 15.873 7.87878 16.7425C8.23894 17.612 8.76683 18.402 9.43232 19.0675C10.0978 19.733 10.8879 20.2609 11.7574 20.6211C12.6269 20.9812 13.5588 21.1666 14.4999 21.1666C15.4411 21.1666 16.373 20.9812 17.2425 20.6211C18.112 20.2609 18.902 19.733 19.5675 19.0675C20.233 18.402 20.7609 17.612 21.1211 16.7425C21.4812 15.873 21.6666 14.9411 21.6666 13.9999C21.6666 13.0588 21.4812 12.1269 21.1211 11.2574C20.7609 10.3879 20.233 9.59781 19.5675 8.93232C18.902 8.26683 18.112 7.73894 17.2425 7.37878C16.373 7.01862 15.4411 6.83325 14.4999 6.83325ZM14.4999 7.83325C14.3257 7.83325 14.1007 7.91711 13.8391 8.18805C13.5755 8.46099 13.3117 8.88876 13.0785 9.47157C12.847 10.0505 12.6589 10.7494 12.5295 11.5304C12.4257 12.157 12.362 12.822 12.341 13.4999L16.6588 13.4999C16.6378 12.822 16.5741 12.157 16.4703 11.5304C16.3409 10.7494 16.1529 10.0505 15.9213 9.47157C15.6882 8.88876 15.4243 8.46099 15.1607 8.18805C14.8991 7.91711 14.6741 7.83325 14.4999 7.83325ZM17.6593 13.4999C17.638 12.7693 17.5699 12.0493 17.4569 11.367C17.3183 10.5303 17.1134 9.75935 16.8498 9.10018C16.7058 8.7403 16.5432 8.41086 16.3623 8.12119C16.5304 8.17444 16.6964 8.23496 16.8598 8.30266C17.608 8.61257 18.2878 9.0668 18.8604 9.63943C19.433 10.2121 19.8873 10.8919 20.1972 11.64C20.4431 12.2338 20.5943 12.8614 20.6463 13.4999H17.6593ZM16.6588 14.4999L12.341 14.4999C12.362 15.1778 12.4257 15.8428 12.5295 16.4694C12.6589 17.2504 12.847 17.9493 13.0785 18.5283C13.3117 19.1111 13.5755 19.5388 13.8391 19.8118C14.1007 20.0827 14.3257 20.1666 14.4999 20.1666C14.6741 20.1666 14.8991 20.0827 15.1607 19.8118C15.4243 19.5388 15.6882 19.1111 15.9213 18.5283C16.1529 17.9493 16.3409 17.2504 16.4703 16.4694C16.5741 15.8428 16.6378 15.1778 16.6588 14.4999ZM16.3623 19.8786C16.5432 19.589 16.7058 19.2595 16.8498 18.8997C17.1134 18.2405 17.3183 17.4695 17.4569 16.6329C17.5699 15.9505 17.638 15.2305 17.6593 14.4999H20.6463C20.5943 15.1385 20.4431 15.766 20.1972 16.3598C19.8873 17.108 19.433 17.7878 18.8604 18.3604C18.2878 18.933 17.608 19.3873 16.8598 19.6972C16.6964 19.7649 16.5304 19.8254 16.3623 19.8786ZM12.6376 19.8786C12.4567 19.589 12.294 19.2595 12.1501 18.8997C11.8864 18.2405 11.6816 17.4695 11.543 16.6329C11.4299 15.9505 11.3619 15.2305 11.3405 14.4999H8.35356C8.4055 15.1385 8.55672 15.766 8.80266 16.3598C9.11257 17.108 9.5668 17.7878 10.1394 18.3604C10.7121 18.933 11.3919 19.3873 12.14 19.6972C12.3035 19.7649 12.4695 19.8254 12.6376 19.8786Z" fill="#2B4483"/>
</svg>
