<svg width="19" height="20" viewBox="0 0 19 20" fill="none" xmlns="http://www.w3.org/2000/svg">
<g clip-path="url(#clip0_25249_15005)">
<path d="M15.4405 6.04168C14.7883 5.06554 13.905 4.26569 12.8691 3.71324C11.8332 3.16078 10.6769 2.87284 9.50296 2.87501C8.33101 2.8743 7.17703 3.16296 6.14345 3.71538C5.10987 4.2678 4.22868 5.06688 3.57812 6.04168" stroke="black" stroke-width="2" stroke-linecap="round" stroke-linejoin="round"/>
<path d="M9.10183 2.875C8.48483 3.86348 7.9989 4.92795 7.65625 6.04167" stroke="black" stroke-width="2" stroke-linecap="round" stroke-linejoin="round"/>
<path d="M9.89844 2.875C10.516 3.8634 11.0025 4.92787 11.3456 6.04167" stroke="black" stroke-width="2" stroke-linecap="round" stroke-linejoin="round"/>
<path d="M15.4405 13.957C14.7883 14.9332 13.905 15.733 12.8691 16.2855C11.8332 16.8379 10.6769 17.1259 9.50296 17.1237C8.33101 17.1244 7.17703 16.8357 6.14345 16.2833C5.10987 15.7309 4.22868 14.9318 3.57812 13.957" stroke="black" stroke-width="2" stroke-linecap="round" stroke-linejoin="round"/>
<path d="M9.10183 17.1237C8.48483 16.1352 7.9989 15.0708 7.65625 13.957" stroke="black" stroke-width="2" stroke-linecap="round" stroke-linejoin="round"/>
<path d="M9.89844 17.1237C10.516 16.1353 11.0025 15.0708 11.3456 13.957" stroke="black" stroke-width="2" stroke-linecap="round" stroke-linejoin="round"/>
<path d="M1.58594 8.41797L2.3776 11.5846L3.5651 8.41797L4.7526 11.5846L5.54427 8.41797" stroke="black" stroke-width="2" stroke-linecap="round" stroke-linejoin="round"/>
<path d="M13.4609 8.41797L14.2526 11.5846L15.4401 8.41797L16.6276 11.5846L17.4193 8.41797" stroke="black" stroke-width="2" stroke-linecap="round" stroke-linejoin="round"/>
<path d="M7.52344 8.41797L8.3151 11.5846L9.5026 8.41797L10.6901 11.5846L11.4818 8.41797" stroke="black" stroke-width="2" stroke-linecap="round" stroke-linejoin="round"/>
</g>
<defs>
<clipPath id="clip0_25249_15005">
<rect width="19" height="19" fill="white" transform="translate(0 0.5)"/>
</clipPath>
</defs>
</svg>
